<svg width="1201" height="413" viewBox="0 0 1201 413" fill="none" xmlns="http://www.w3.org/2000/svg">
<rect x="269.017" y="1.66574" width="226.541" height="401.444" stroke="white" stroke-width="3.33148" stroke-dasharray="8.33 8.33"/>
<path d="M383.052 41.6527H380.618C380.549 41.2536 380.421 40.9001 380.234 40.5921C380.048 40.2798 379.816 40.0151 379.538 39.7982C379.26 39.5814 378.944 39.4187 378.588 39.3102C378.237 39.1975 377.857 39.1411 377.449 39.1411C376.725 39.1411 376.083 39.3233 375.523 39.6876C374.964 40.0477 374.526 40.5769 374.209 41.2753C373.892 41.9694 373.734 42.8174 373.734 43.8195C373.734 44.8389 373.892 45.6978 374.209 46.3961C374.53 47.0902 374.968 47.6151 375.523 47.9708C376.083 48.3222 376.723 48.4978 377.443 48.4978C377.842 48.4978 378.215 48.4458 378.562 48.3417C378.913 48.2332 379.228 48.0749 379.506 47.8667C379.788 47.6585 380.024 47.4025 380.215 47.0989C380.41 46.7952 380.544 46.4482 380.618 46.0578L383.052 46.0708C382.961 46.7041 382.763 47.2984 382.46 47.8537C382.16 48.4089 381.768 48.8991 381.282 49.3242C380.796 49.745 380.228 50.0747 379.577 50.3132C378.926 50.5475 378.204 50.6646 377.41 50.6646C376.239 50.6646 375.194 50.3935 374.274 49.8513C373.354 49.309 372.63 48.526 372.101 47.5023C371.572 46.4786 371.307 45.251 371.307 43.8195C371.307 42.3836 371.574 41.156 372.107 40.1366C372.641 39.1129 373.367 38.3299 374.287 37.7876C375.207 37.2454 376.248 36.9743 377.41 36.9743C378.152 36.9743 378.842 37.0784 379.48 37.2866C380.117 37.4948 380.685 37.8007 381.184 38.2041C381.683 38.6032 382.093 39.0933 382.414 39.6746C382.739 40.2516 382.952 40.9109 383.052 41.6527ZM386.813 50.4824H384.236L388.927 37.1565H391.908L396.605 50.4824H394.029L390.47 39.8893H390.365L386.813 50.4824ZM386.897 45.2575H393.925V47.1965H386.897V45.2575Z" fill="white"/>
<rect x="17.4904" y="1.66574" width="226.541" height="401.444" stroke="white" stroke-width="3.33148"/>
<path d="M129.208 37.1565H131.622V45.8626C131.622 46.8169 131.396 47.6563 130.945 48.3807C130.498 49.1051 129.869 49.6712 129.058 50.079C128.247 50.4824 127.299 50.6841 126.215 50.6841C125.126 50.6841 124.176 50.4824 123.365 50.079C122.553 49.6712 121.924 49.1051 121.478 48.3807C121.031 47.6563 120.807 46.8169 120.807 45.8626V37.1565H123.221V45.6609C123.221 46.2161 123.343 46.7106 123.586 47.1444C123.833 47.5782 124.18 47.9187 124.627 48.166C125.074 48.4089 125.603 48.5304 126.215 48.5304C126.826 48.5304 127.355 48.4089 127.802 48.166C128.253 47.9187 128.6 47.5782 128.843 47.1444C129.086 46.7106 129.208 46.2161 129.208 45.6609V37.1565ZM141.488 40.8198C141.427 40.2516 141.171 39.8091 140.72 39.4924C140.273 39.1758 139.692 39.0174 138.976 39.0174C138.473 39.0174 138.041 39.0933 137.681 39.2452C137.321 39.397 137.046 39.603 136.855 39.8633C136.664 40.1236 136.566 40.4207 136.562 40.7547C136.562 41.0324 136.625 41.2731 136.751 41.477C136.881 41.6809 137.057 41.8544 137.278 41.9975C137.499 42.1364 137.744 42.2535 138.013 42.3489C138.282 42.4443 138.553 42.5246 138.826 42.5897L140.076 42.902C140.579 43.0191 141.063 43.1774 141.527 43.377C141.995 43.5765 142.414 43.8281 142.782 44.1318C143.156 44.4354 143.451 44.802 143.667 45.2314C143.884 45.6609 143.993 46.1641 143.993 46.741C143.993 47.5218 143.793 48.2094 143.394 48.8037C142.995 49.3936 142.418 49.8556 141.663 50.1896C140.913 50.5193 140.004 50.6841 138.937 50.6841C137.9 50.6841 137 50.5236 136.237 50.2026C135.478 49.8816 134.883 49.4131 134.454 48.7972C134.029 48.1812 133.799 47.4307 133.764 46.5458H136.139C136.174 47.01 136.317 47.396 136.568 47.704C136.82 48.012 137.148 48.2419 137.551 48.3937C137.959 48.5456 138.414 48.6215 138.917 48.6215C139.442 48.6215 139.902 48.5434 140.297 48.3872C140.696 48.2267 141.008 48.0055 141.234 47.7235C141.459 47.4372 141.574 47.1032 141.579 46.7215C141.574 46.3745 141.472 46.0882 141.273 45.8626C141.073 45.6327 140.794 45.4418 140.434 45.29C140.078 45.1338 139.661 44.995 139.184 44.8736L137.668 44.4831C136.571 44.2012 135.703 43.7739 135.065 43.2013C134.432 42.6244 134.115 41.8587 134.115 40.9044C134.115 40.1193 134.328 39.4317 134.753 38.8417C135.183 38.2518 135.766 37.7942 136.503 37.4688C137.241 37.1391 138.076 36.9743 139.009 36.9743C139.954 36.9743 140.783 37.1391 141.494 37.4688C142.21 37.7942 142.772 38.2475 143.179 38.8287C143.587 39.4057 143.798 40.0694 143.811 40.8198H141.488Z" fill="white"/>
<rect x="526.375" y="1.66574" width="226.541" height="401.444" stroke="white" stroke-width="3.33148" stroke-dasharray="8.33 8.33"/>
<path d="M637.841 37.1565H640.255V45.8626C640.255 46.8169 640.03 47.6563 639.579 48.3807C639.132 49.1051 638.503 49.6712 637.692 50.079C636.881 50.4824 635.933 50.6841 634.848 50.6841C633.76 50.6841 632.81 50.4824 631.998 50.079C631.187 49.6712 630.558 49.1051 630.111 48.3807C629.665 47.6563 629.441 46.8169 629.441 45.8626V37.1565H631.855V45.6609C631.855 46.2161 631.977 46.7106 632.22 47.1444C632.467 47.5782 632.814 47.9187 633.261 48.166C633.707 48.4089 634.237 48.5304 634.848 48.5304C635.46 48.5304 635.989 48.4089 636.436 48.166C636.887 47.9187 637.234 47.5782 637.477 47.1444C637.72 46.7106 637.841 46.2161 637.841 45.6609V37.1565ZM642.879 50.4824V37.1565H645.293V43.2794H645.456L650.655 37.1565H653.603L648.449 43.1362L653.648 50.4824H650.746L646.77 44.7694L645.293 46.5133V50.4824H642.879Z" fill="white"/>
<rect x="798.723" y="79.1228" width="348.14" height="331.483" fill="#2F3741" stroke="#F4F784" stroke-width="3.33148"/>
<rect x="1.66574" y="174.07" width="1197.67" height="205.719" fill="white" fill-opacity="0.2" stroke="#FB8282" stroke-width="3.33148"/>
<rect x="29.1507" y="193.226" width="712.105" height="55.8024" fill="#2F3741" stroke="#FB8282" stroke-width="1.66574"/>
<rect x="29.1507" y="249.029" width="712.105" height="55.8024" fill="#2F3741" stroke="#FB8282" stroke-width="1.66574"/>
<rect x="29.1507" y="304.831" width="712.105" height="55.8024" fill="#2F3741" stroke="#FB8282" stroke-width="1.66574"/>
<path d="M297.793 228.079C296.795 228.079 295.939 227.86 295.223 227.422C294.511 226.984 293.963 226.379 293.577 225.606C293.195 224.83 293.004 223.936 293.004 222.926C293.004 221.911 293.199 221.015 293.59 220.238C293.98 219.457 294.531 218.85 295.242 218.416C295.958 217.978 296.804 217.759 297.78 217.759C298.591 217.759 299.309 217.909 299.934 218.208C300.563 218.503 301.064 218.922 301.437 219.464C301.81 220.002 302.022 220.631 302.074 221.351H299.823C299.732 220.869 299.515 220.468 299.172 220.147C298.834 219.822 298.381 219.659 297.812 219.659C297.331 219.659 296.908 219.789 296.544 220.05C296.179 220.306 295.895 220.674 295.691 221.156C295.492 221.637 295.392 222.214 295.392 222.887C295.392 223.568 295.492 224.153 295.691 224.643C295.891 225.129 296.171 225.504 296.531 225.769C296.895 226.029 297.322 226.159 297.812 226.159C298.16 226.159 298.47 226.094 298.743 225.964C299.021 225.83 299.253 225.637 299.439 225.385C299.626 225.134 299.754 224.828 299.823 224.468H302.074C302.018 225.175 301.81 225.802 301.45 226.348C301.09 226.89 300.6 227.316 299.979 227.624C299.359 227.927 298.63 228.079 297.793 228.079ZM308.368 228.079C307.392 228.079 306.546 227.864 305.83 227.435C305.115 227.005 304.559 226.405 304.165 225.632C303.774 224.86 303.579 223.958 303.579 222.926C303.579 221.893 303.774 220.989 304.165 220.212C304.559 219.436 305.115 218.833 305.83 218.403C306.546 217.974 307.392 217.759 308.368 217.759C309.344 217.759 310.19 217.974 310.906 218.403C311.622 218.833 312.175 219.436 312.565 220.212C312.96 220.989 313.157 221.893 313.157 222.926C313.157 223.958 312.96 224.86 312.565 225.632C312.175 226.405 311.622 227.005 310.906 227.435C310.19 227.864 309.344 228.079 308.368 228.079ZM308.381 226.192C308.91 226.192 309.353 226.047 309.709 225.756C310.064 225.461 310.329 225.066 310.502 224.572C310.68 224.077 310.769 223.526 310.769 222.919C310.769 222.307 310.68 221.754 310.502 221.26C310.329 220.761 310.064 220.364 309.709 220.069C309.353 219.774 308.91 219.627 308.381 219.627C307.839 219.627 307.388 219.774 307.028 220.069C306.672 220.364 306.405 220.761 306.227 221.26C306.054 221.754 305.967 222.307 305.967 222.919C305.967 223.526 306.054 224.077 306.227 224.572C306.405 225.066 306.672 225.461 307.028 225.756C307.388 226.047 307.839 226.192 308.381 226.192ZM315.156 227.884V217.889H317.408V219.588H317.525C317.733 219.015 318.078 218.568 318.559 218.247C319.041 217.922 319.616 217.759 320.284 217.759C320.96 217.759 321.531 217.924 321.995 218.254C322.464 218.579 322.793 219.024 322.984 219.588H323.088C323.309 219.032 323.682 218.59 324.207 218.26C324.737 217.926 325.363 217.759 326.088 217.759C327.007 217.759 327.758 218.05 328.339 218.631C328.92 219.212 329.211 220.06 329.211 221.175V227.884H326.849V221.54C326.849 220.919 326.684 220.466 326.355 220.18C326.025 219.889 325.621 219.744 325.144 219.744C324.576 219.744 324.131 219.922 323.81 220.277C323.494 220.629 323.335 221.086 323.335 221.65V227.884H321.026V221.442C321.026 220.926 320.869 220.514 320.557 220.206C320.249 219.898 319.846 219.744 319.347 219.744C319.008 219.744 318.7 219.831 318.423 220.004C318.145 220.173 317.924 220.414 317.759 220.726C317.594 221.034 317.512 221.394 317.512 221.806V227.884H315.156ZM331.601 227.884V217.889H333.852V219.588H333.969C334.177 219.015 334.522 218.568 335.004 218.247C335.485 217.922 336.06 217.759 336.728 217.759C337.405 217.759 337.975 217.924 338.439 218.254C338.908 218.579 339.238 219.024 339.428 219.588H339.533C339.754 219.032 340.127 218.59 340.652 218.26C341.181 217.926 341.808 217.759 342.532 217.759C343.452 217.759 344.202 218.05 344.783 218.631C345.365 219.212 345.655 220.06 345.655 221.175V227.884H343.293V221.54C343.293 220.919 343.129 220.466 342.799 220.18C342.469 219.889 342.066 219.744 341.589 219.744C341.02 219.744 340.576 219.922 340.255 220.277C339.938 220.629 339.78 221.086 339.78 221.65V227.884H337.47V221.442C337.47 220.926 337.314 220.514 337.001 220.206C336.693 219.898 336.29 219.744 335.791 219.744C335.453 219.744 335.145 219.831 334.867 220.004C334.59 220.173 334.368 220.414 334.203 220.726C334.039 221.034 333.956 221.394 333.956 221.806V227.884H331.601ZM352.405 228.079C351.429 228.079 350.583 227.864 349.867 227.435C349.151 227.005 348.596 226.405 348.201 225.632C347.811 224.86 347.616 223.958 347.616 222.926C347.616 221.893 347.811 220.989 348.201 220.212C348.596 219.436 349.151 218.833 349.867 218.403C350.583 217.974 351.429 217.759 352.405 217.759C353.381 217.759 354.226 217.974 354.942 218.403C355.658 218.833 356.211 219.436 356.601 220.212C356.996 220.989 357.194 221.893 357.194 222.926C357.194 223.958 356.996 224.86 356.601 225.632C356.211 226.405 355.658 227.005 354.942 227.435C354.226 227.864 353.381 228.079 352.405 228.079ZM352.418 226.192C352.947 226.192 353.389 226.047 353.745 225.756C354.101 225.461 354.365 225.066 354.539 224.572C354.717 224.077 354.806 223.526 354.806 222.919C354.806 222.307 354.717 221.754 354.539 221.26C354.365 220.761 354.101 220.364 353.745 220.069C353.389 219.774 352.947 219.627 352.418 219.627C351.875 219.627 351.424 219.774 351.064 220.069C350.708 220.364 350.442 220.761 350.264 221.26C350.09 221.754 350.004 222.307 350.004 222.919C350.004 223.526 350.09 224.077 350.264 224.572C350.442 225.066 350.708 225.461 351.064 225.756C351.424 226.047 351.875 226.192 352.418 226.192ZM361.548 222.028V227.884H359.193V217.889H361.444V219.588H361.561C361.791 219.028 362.158 218.583 362.661 218.254C363.168 217.924 363.795 217.759 364.541 217.759C365.231 217.759 365.832 217.907 366.344 218.202C366.86 218.497 367.259 218.924 367.541 219.484C367.827 220.043 367.968 220.722 367.964 221.52V227.884H365.609V221.885C365.609 221.216 365.435 220.694 365.088 220.316C364.745 219.939 364.27 219.75 363.663 219.75C363.251 219.75 362.884 219.841 362.563 220.024C362.247 220.201 361.997 220.46 361.815 220.798C361.637 221.136 361.548 221.546 361.548 222.028ZM381.274 223.68V217.889H383.629V227.884H381.345V226.107H381.241C381.016 226.667 380.645 227.125 380.128 227.48C379.617 227.836 378.985 228.014 378.235 228.014C377.58 228.014 377.001 227.869 376.498 227.578C375.999 227.283 375.608 226.856 375.326 226.296C375.044 225.732 374.904 225.051 374.904 224.253V217.889H377.259V223.889C377.259 224.522 377.432 225.025 377.78 225.398C378.127 225.771 378.582 225.958 379.146 225.958C379.493 225.958 379.829 225.873 380.154 225.704C380.48 225.535 380.747 225.283 380.955 224.949C381.167 224.611 381.274 224.188 381.274 223.68ZM386.051 227.884V217.889H388.407V227.884H386.051ZM387.236 216.471C386.858 216.471 386.535 216.347 386.266 216.1C386.001 215.848 385.869 215.547 385.869 215.196C385.869 214.84 386.004 214.538 386.273 214.291C386.541 214.039 386.862 213.914 387.236 213.914C387.609 213.914 387.927 214.039 388.192 214.291C388.461 214.538 388.595 214.84 388.595 215.196C388.595 215.547 388.461 215.848 388.192 216.1C387.927 216.347 387.609 216.471 387.236 216.471ZM403.273 220.531L401.126 220.765C401.065 220.548 400.959 220.345 400.807 220.154C400.66 219.963 400.46 219.809 400.208 219.692C399.957 219.575 399.649 219.516 399.284 219.516C398.794 219.516 398.382 219.622 398.048 219.835C397.719 220.047 397.556 220.323 397.56 220.661C397.556 220.952 397.662 221.188 397.879 221.37C398.1 221.553 398.465 221.702 398.972 221.819L400.677 222.184C401.623 222.388 402.325 222.711 402.785 223.153C403.249 223.596 403.484 224.175 403.488 224.891C403.484 225.52 403.299 226.075 402.935 226.556C402.575 227.034 402.074 227.407 401.432 227.676C400.79 227.945 400.052 228.079 399.219 228.079C397.996 228.079 397.011 227.823 396.265 227.311C395.519 226.795 395.075 226.077 394.931 225.157L397.228 224.936C397.332 225.387 397.554 225.728 397.892 225.958C398.23 226.188 398.671 226.303 399.213 226.303C399.773 226.303 400.221 226.188 400.56 225.958C400.903 225.728 401.074 225.444 401.074 225.105C401.074 224.819 400.963 224.583 400.742 224.396C400.525 224.21 400.187 224.066 399.727 223.967L398.022 223.609C397.064 223.409 396.354 223.073 395.894 222.6C395.435 222.123 395.207 221.52 395.211 220.791C395.207 220.175 395.374 219.642 395.712 219.191C396.055 218.735 396.53 218.384 397.137 218.137C397.749 217.885 398.454 217.759 399.252 217.759C400.423 217.759 401.345 218.009 402.017 218.507C402.694 219.006 403.113 219.681 403.273 220.531ZM409.855 228.079C408.853 228.079 407.987 227.871 407.259 227.454C406.534 227.034 405.977 226.439 405.586 225.671C405.196 224.899 405.001 223.991 405.001 222.945C405.001 221.917 405.196 221.015 405.586 220.238C405.981 219.457 406.532 218.85 407.239 218.416C407.946 217.978 408.777 217.759 409.731 217.759C410.347 217.759 410.928 217.859 411.475 218.059C412.026 218.254 412.512 218.557 412.933 218.969C413.358 219.382 413.692 219.906 413.935 220.544C414.177 221.177 414.299 221.932 414.299 222.808V223.531H406.107V221.943H412.041C412.037 221.492 411.939 221.091 411.748 220.739C411.557 220.384 411.291 220.104 410.948 219.9C410.61 219.696 410.215 219.594 409.764 219.594C409.282 219.594 408.859 219.711 408.495 219.945C408.13 220.175 407.846 220.479 407.642 220.856C407.443 221.229 407.341 221.639 407.337 222.086V223.472C407.337 224.053 407.443 224.552 407.656 224.969C407.868 225.381 408.165 225.698 408.547 225.919C408.929 226.136 409.375 226.244 409.887 226.244C410.23 226.244 410.54 226.196 410.818 226.101C411.095 226.001 411.336 225.856 411.54 225.665C411.744 225.474 411.898 225.238 412.002 224.956L414.201 225.203C414.063 225.784 413.798 226.292 413.408 226.726C413.021 227.155 412.527 227.489 411.924 227.728C411.321 227.962 410.631 228.079 409.855 228.079ZM416.292 227.884V217.889H418.576V219.555H418.68C418.862 218.978 419.174 218.534 419.617 218.221C420.063 217.905 420.573 217.746 421.146 217.746C421.276 217.746 421.421 217.753 421.582 217.766C421.746 217.774 421.883 217.79 421.992 217.811V219.978C421.892 219.943 421.733 219.913 421.517 219.887C421.304 219.857 421.098 219.841 420.898 219.841C420.469 219.841 420.083 219.935 419.74 220.121C419.402 220.303 419.135 220.557 418.94 220.882C418.745 221.208 418.647 221.583 418.647 222.008V227.884H416.292ZM432.788 217.889L429.229 227.884H426.626L423.067 217.889H425.578L427.875 225.314H427.979L430.283 217.889H432.788ZM434.418 227.884V217.889H436.773V227.884H434.418ZM435.602 216.471C435.225 216.471 434.902 216.347 434.633 216.1C434.368 215.848 434.236 215.547 434.236 215.196C434.236 214.84 434.37 214.538 434.639 214.291C434.908 214.039 435.229 213.914 435.602 213.914C435.975 213.914 436.294 214.039 436.559 214.291C436.828 214.538 436.962 214.84 436.962 215.196C436.962 215.547 436.828 215.848 436.559 216.1C436.294 216.347 435.975 216.471 435.602 216.471ZM443.555 228.079C442.557 228.079 441.701 227.86 440.985 227.422C440.274 226.984 439.725 226.379 439.339 225.606C438.957 224.83 438.766 223.936 438.766 222.926C438.766 221.911 438.961 221.015 439.352 220.238C439.742 219.457 440.293 218.85 441.005 218.416C441.72 217.978 442.566 217.759 443.542 217.759C444.353 217.759 445.071 217.909 445.696 218.208C446.325 218.503 446.826 218.922 447.199 219.464C447.572 220.002 447.785 220.631 447.837 221.351H445.585C445.494 220.869 445.277 220.468 444.935 220.147C444.596 219.822 444.143 219.659 443.575 219.659C443.093 219.659 442.67 219.789 442.306 220.05C441.941 220.306 441.657 220.674 441.453 221.156C441.254 221.637 441.154 222.214 441.154 222.887C441.154 223.568 441.254 224.153 441.453 224.643C441.653 225.129 441.933 225.504 442.293 225.769C442.657 226.029 443.085 226.159 443.575 226.159C443.922 226.159 444.232 226.094 444.505 225.964C444.783 225.83 445.015 225.637 445.201 225.385C445.388 225.134 445.516 224.828 445.585 224.468H447.837C447.78 225.175 447.572 225.802 447.212 226.348C446.852 226.89 446.362 227.316 445.741 227.624C445.121 227.927 444.392 228.079 443.555 228.079ZM454.195 228.079C453.193 228.079 452.328 227.871 451.599 227.454C450.875 227.034 450.317 226.439 449.927 225.671C449.537 224.899 449.341 223.991 449.341 222.945C449.341 221.917 449.537 221.015 449.927 220.238C450.322 219.457 450.873 218.85 451.58 218.416C452.287 217.978 453.117 217.759 454.072 217.759C454.688 217.759 455.269 217.859 455.816 218.059C456.367 218.254 456.852 218.557 457.273 218.969C457.698 219.382 458.032 219.906 458.275 220.544C458.518 221.177 458.64 221.932 458.64 222.808V223.531H450.447V221.943H456.382C456.377 221.492 456.28 221.091 456.089 220.739C455.898 220.384 455.631 220.104 455.289 219.9C454.95 219.696 454.555 219.594 454.104 219.594C453.623 219.594 453.2 219.711 452.835 219.945C452.471 220.175 452.187 220.479 451.983 220.856C451.784 221.229 451.682 221.639 451.677 222.086V223.472C451.677 224.053 451.784 224.552 451.996 224.969C452.209 225.381 452.506 225.698 452.888 225.919C453.269 226.136 453.716 226.244 454.228 226.244C454.571 226.244 454.881 226.196 455.158 226.101C455.436 226.001 455.677 225.856 455.881 225.665C456.085 225.474 456.239 225.238 456.343 224.956L458.542 225.203C458.403 225.784 458.139 226.292 457.748 226.726C457.362 227.155 456.868 227.489 456.265 227.728C455.662 227.962 454.972 228.079 454.195 228.079ZM468.532 220.531L466.384 220.765C466.324 220.548 466.217 220.345 466.065 220.154C465.918 219.963 465.718 219.809 465.467 219.692C465.215 219.575 464.907 219.516 464.543 219.516C464.053 219.516 463.641 219.622 463.307 219.835C462.977 220.047 462.814 220.323 462.819 220.661C462.814 220.952 462.92 221.188 463.137 221.37C463.359 221.553 463.723 221.702 464.231 221.819L465.935 222.184C466.881 222.388 467.584 222.711 468.044 223.153C468.508 223.596 468.742 224.175 468.746 224.891C468.742 225.52 468.558 226.075 468.193 226.556C467.833 227.034 467.332 227.407 466.69 227.676C466.048 227.945 465.311 228.079 464.478 228.079C463.255 228.079 462.27 227.823 461.524 227.311C460.778 226.795 460.333 226.077 460.19 225.157L462.487 224.936C462.591 225.387 462.812 225.728 463.15 225.958C463.489 226.188 463.929 226.303 464.471 226.303C465.031 226.303 465.48 226.188 465.818 225.958C466.161 225.728 466.332 225.444 466.332 225.105C466.332 224.819 466.222 224.583 466 224.396C465.783 224.21 465.445 224.066 464.985 223.967L463.281 223.609C462.322 223.409 461.613 223.073 461.153 222.6C460.693 222.123 460.465 221.52 460.47 220.791C460.465 220.175 460.632 219.642 460.971 219.191C461.313 218.735 461.788 218.384 462.396 218.137C463.007 217.885 463.712 217.759 464.51 217.759C465.682 217.759 466.603 218.009 467.276 218.507C467.952 219.006 468.371 219.681 468.532 220.531Z" fill="white"/>
<path d="M344.409 283.862C343.624 283.862 342.921 283.66 342.301 283.257C341.68 282.854 341.19 282.268 340.83 281.5C340.47 280.732 340.29 279.8 340.29 278.702C340.29 277.592 340.472 276.655 340.837 275.891C341.205 275.124 341.702 274.544 342.327 274.154C342.951 273.759 343.647 273.562 344.415 273.562C345.001 273.562 345.482 273.662 345.86 273.861C346.237 274.056 346.536 274.293 346.758 274.57C346.979 274.844 347.15 275.102 347.272 275.345H347.369V270.361H349.731V283.687H347.415V282.112H347.272C347.15 282.355 346.975 282.613 346.745 282.886C346.515 283.155 346.211 283.385 345.834 283.576C345.456 283.767 344.981 283.862 344.409 283.862ZM345.066 281.93C345.565 281.93 345.99 281.795 346.341 281.526C346.693 281.253 346.959 280.873 347.142 280.388C347.324 279.902 347.415 279.336 347.415 278.689C347.415 278.043 347.324 277.481 347.142 277.004C346.964 276.527 346.699 276.156 346.348 275.891C346.001 275.627 345.573 275.494 345.066 275.494C344.541 275.494 344.103 275.631 343.752 275.904C343.4 276.178 343.136 276.555 342.958 277.037C342.78 277.518 342.691 278.069 342.691 278.689C342.691 279.314 342.78 279.871 342.958 280.362C343.14 280.847 343.407 281.231 343.758 281.513C344.114 281.791 344.55 281.93 345.066 281.93ZM360.141 276.334L357.993 276.568C357.933 276.351 357.826 276.147 357.674 275.956C357.527 275.766 357.327 275.612 357.076 275.494C356.824 275.377 356.516 275.319 356.152 275.319C355.662 275.319 355.25 275.425 354.916 275.638C354.586 275.85 354.423 276.126 354.428 276.464C354.423 276.755 354.53 276.991 354.746 277.173C354.968 277.355 355.332 277.505 355.84 277.622L357.544 277.987C358.49 278.19 359.193 278.514 359.653 278.956C360.117 279.399 360.351 279.978 360.355 280.693C360.351 281.322 360.167 281.878 359.802 282.359C359.442 282.836 358.941 283.209 358.299 283.478C357.657 283.747 356.92 283.882 356.087 283.882C354.864 283.882 353.879 283.626 353.133 283.114C352.387 282.598 351.942 281.88 351.799 280.96L354.096 280.739C354.2 281.19 354.421 281.531 354.759 281.761C355.098 281.99 355.538 282.105 356.08 282.105C356.64 282.105 357.089 281.99 357.427 281.761C357.77 281.531 357.941 281.246 357.941 280.908C357.941 280.622 357.831 280.385 357.609 280.199C357.393 280.012 357.054 279.869 356.594 279.769L354.89 279.412C353.931 279.212 353.222 278.876 352.762 278.403C352.302 277.926 352.074 277.323 352.079 276.594C352.074 275.978 352.241 275.445 352.58 274.993C352.922 274.538 353.397 274.187 354.005 273.939C354.616 273.688 355.321 273.562 356.119 273.562C357.291 273.562 358.212 273.811 358.885 274.31C359.561 274.809 359.98 275.484 360.141 276.334ZM371.833 273.692V275.514H366.088V273.692H371.833ZM367.506 271.298H369.862V280.68C369.862 280.997 369.909 281.24 370.005 281.409C370.105 281.574 370.235 281.687 370.395 281.747C370.556 281.808 370.734 281.839 370.929 281.839C371.076 281.839 371.211 281.828 371.332 281.806C371.458 281.784 371.554 281.765 371.619 281.747L372.016 283.589C371.89 283.632 371.71 283.68 371.475 283.732C371.246 283.784 370.964 283.814 370.63 283.823C370.04 283.841 369.508 283.752 369.035 283.556C368.563 283.357 368.187 283.049 367.91 282.632C367.636 282.216 367.502 281.695 367.506 281.071V271.298ZM376.373 277.83V283.687H374.018V270.361H376.321V275.39H376.439C376.673 274.826 377.035 274.382 377.525 274.056C378.02 273.727 378.649 273.562 379.412 273.562C380.106 273.562 380.711 273.707 381.228 273.998C381.744 274.289 382.143 274.714 382.425 275.273C382.711 275.833 382.854 276.516 382.854 277.323V283.687H380.499V277.687C380.499 277.015 380.325 276.492 379.978 276.119C379.636 275.742 379.154 275.553 378.534 275.553C378.117 275.553 377.744 275.644 377.415 275.826C377.089 276.004 376.833 276.262 376.647 276.601C376.465 276.939 376.373 277.349 376.373 277.83ZM389.68 283.882C388.678 283.882 387.812 283.674 387.084 283.257C386.359 282.836 385.802 282.242 385.411 281.474C385.021 280.702 384.826 279.793 384.826 278.748C384.826 277.72 385.021 276.818 385.411 276.041C385.806 275.26 386.357 274.653 387.064 274.219C387.771 273.781 388.602 273.562 389.556 273.562C390.172 273.562 390.753 273.662 391.3 273.861C391.851 274.056 392.337 274.36 392.758 274.772C393.183 275.184 393.517 275.709 393.76 276.347C394.003 276.98 394.124 277.735 394.124 278.611V279.333H385.932V277.746H391.866C391.862 277.295 391.764 276.893 391.573 276.542C391.382 276.186 391.116 275.907 390.773 275.703C390.435 275.499 390.04 275.397 389.589 275.397C389.107 275.397 388.684 275.514 388.32 275.748C387.956 275.978 387.671 276.282 387.468 276.659C387.268 277.032 387.166 277.442 387.162 277.889V279.275C387.162 279.856 387.268 280.355 387.481 280.771C387.693 281.184 387.99 281.5 388.372 281.721C388.754 281.938 389.201 282.047 389.712 282.047C390.055 282.047 390.365 281.999 390.643 281.904C390.92 281.804 391.161 281.659 391.365 281.468C391.569 281.277 391.723 281.04 391.827 280.758L394.026 281.006C393.888 281.587 393.623 282.095 393.233 282.528C392.846 282.958 392.352 283.292 391.749 283.53C391.146 283.765 390.456 283.882 389.68 283.882ZM396.117 283.687V273.692H398.368V275.39H398.485C398.693 274.818 399.038 274.371 399.52 274.05C400.001 273.725 400.576 273.562 401.244 273.562C401.921 273.562 402.491 273.727 402.955 274.056C403.424 274.382 403.754 274.826 403.944 275.39H404.048C404.27 274.835 404.643 274.393 405.168 274.063C405.697 273.729 406.324 273.562 407.048 273.562C407.968 273.562 408.718 273.853 409.299 274.434C409.881 275.015 410.171 275.863 410.171 276.978V283.687H407.809V277.342C407.809 276.722 407.645 276.269 407.315 275.982C406.985 275.692 406.582 275.547 406.105 275.547C405.536 275.547 405.092 275.724 404.771 276.08C404.454 276.431 404.296 276.889 404.296 277.453V283.687H401.986V277.245C401.986 276.729 401.83 276.316 401.517 276.008C401.209 275.701 400.806 275.547 400.307 275.547C399.969 275.547 399.661 275.633 399.383 275.807C399.105 275.976 398.884 276.217 398.719 276.529C398.555 276.837 398.472 277.197 398.472 277.609V283.687H396.117ZM416.986 283.882C415.984 283.882 415.118 283.674 414.389 283.257C413.665 282.836 413.108 282.242 412.717 281.474C412.327 280.702 412.132 279.793 412.132 278.748C412.132 277.72 412.327 276.818 412.717 276.041C413.112 275.26 413.663 274.653 414.37 274.219C415.077 273.781 415.908 273.562 416.862 273.562C417.478 273.562 418.059 273.662 418.606 273.861C419.157 274.056 419.643 274.36 420.063 274.772C420.488 275.184 420.823 275.709 421.065 276.347C421.308 276.98 421.43 277.735 421.43 278.611V279.333H413.238V277.746H419.172C419.168 277.295 419.07 276.893 418.879 276.542C418.688 276.186 418.421 275.907 418.079 275.703C417.74 275.499 417.346 275.397 416.895 275.397C416.413 275.397 415.99 275.514 415.626 275.748C415.261 275.978 414.977 276.282 414.773 276.659C414.574 277.032 414.472 277.442 414.468 277.889V279.275C414.468 279.856 414.574 280.355 414.786 280.771C414.999 281.184 415.296 281.5 415.678 281.721C416.06 281.938 416.506 282.047 417.018 282.047C417.361 282.047 417.671 281.999 417.949 281.904C418.226 281.804 418.467 281.659 418.671 281.468C418.875 281.277 419.029 281.04 419.133 280.758L421.332 281.006C421.193 281.587 420.929 282.095 420.538 282.528C420.152 282.958 419.658 283.292 419.055 283.53C418.452 283.765 417.762 283.882 416.986 283.882Z" fill="white"/>
<path d="M323.643 326.162H326.057V334.868C326.057 335.823 325.832 336.662 325.38 337.387C324.934 338.111 324.305 338.677 323.493 339.085C322.682 339.488 321.734 339.69 320.65 339.69C319.561 339.69 318.611 339.488 317.8 339.085C316.989 338.677 316.36 338.111 315.913 337.387C315.466 336.662 315.243 335.823 315.243 334.868V326.162H317.657V334.667C317.657 335.222 317.778 335.717 318.021 336.15C318.268 336.584 318.616 336.925 319.062 337.172C319.509 337.415 320.038 337.536 320.65 337.536C321.262 337.536 321.791 337.415 322.238 337.172C322.689 336.925 323.036 336.584 323.279 336.15C323.522 335.717 323.643 335.222 323.643 334.667V326.162ZM331.095 326.162V339.488H328.681V326.162H331.095ZM342.51 339.683C341.512 339.683 340.655 339.464 339.939 339.026C339.228 338.588 338.679 337.983 338.293 337.211C337.911 336.434 337.721 335.541 337.721 334.53C337.721 333.515 337.916 332.619 338.306 331.843C338.697 331.062 339.248 330.455 339.959 330.021C340.675 329.583 341.521 329.364 342.497 329.364C343.308 329.364 344.026 329.513 344.65 329.813C345.279 330.108 345.78 330.526 346.153 331.068C346.526 331.606 346.739 332.235 346.791 332.955H344.54C344.449 332.474 344.232 332.073 343.889 331.752C343.551 331.426 343.097 331.264 342.529 331.264C342.048 331.264 341.625 331.394 341.26 331.654C340.896 331.91 340.612 332.279 340.408 332.76C340.208 333.242 340.109 333.819 340.109 334.491C340.109 335.172 340.208 335.758 340.408 336.248C340.607 336.734 340.887 337.109 341.247 337.374C341.612 337.634 342.039 337.764 342.529 337.764C342.876 337.764 343.186 337.699 343.46 337.569C343.737 337.434 343.969 337.241 344.156 336.99C344.342 336.738 344.47 336.432 344.54 336.072H346.791C346.735 336.779 346.526 337.406 346.166 337.953C345.806 338.495 345.316 338.92 344.696 339.228C344.076 339.532 343.347 339.683 342.51 339.683ZM353.085 339.683C352.109 339.683 351.263 339.469 350.547 339.039C349.831 338.61 349.276 338.009 348.881 337.237C348.491 336.465 348.296 335.563 348.296 334.53C348.296 333.498 348.491 332.593 348.881 331.817C349.276 331.04 349.831 330.437 350.547 330.008C351.263 329.578 352.109 329.364 353.085 329.364C354.061 329.364 354.907 329.578 355.622 330.008C356.338 330.437 356.891 331.04 357.282 331.817C357.676 332.593 357.874 333.498 357.874 334.53C357.874 335.563 357.676 336.465 357.282 337.237C356.891 338.009 356.338 338.61 355.622 339.039C354.907 339.469 354.061 339.683 353.085 339.683ZM353.098 337.797C353.627 337.797 354.069 337.651 354.425 337.361C354.781 337.066 355.045 336.671 355.219 336.176C355.397 335.682 355.486 335.131 355.486 334.524C355.486 333.912 355.397 333.359 355.219 332.864C355.045 332.365 354.781 331.969 354.425 331.674C354.069 331.379 353.627 331.231 353.098 331.231C352.556 331.231 352.104 331.379 351.744 331.674C351.389 331.969 351.122 332.365 350.944 332.864C350.771 333.359 350.684 333.912 350.684 334.524C350.684 335.131 350.771 335.682 350.944 336.176C351.122 336.671 351.389 337.066 351.744 337.361C352.104 337.651 352.556 337.797 353.098 337.797ZM359.873 339.488V329.494H362.124V331.192H362.241C362.45 330.62 362.795 330.173 363.276 329.852C363.758 329.526 364.332 329.364 365 329.364C365.677 329.364 366.247 329.529 366.712 329.858C367.18 330.184 367.51 330.628 367.701 331.192H367.805C368.026 330.637 368.399 330.194 368.924 329.865C369.453 329.531 370.08 329.364 370.804 329.364C371.724 329.364 372.474 329.654 373.056 330.236C373.637 330.817 373.928 331.665 373.928 332.78V339.488H371.566V333.144C371.566 332.524 371.401 332.071 371.071 331.784C370.742 331.494 370.338 331.348 369.861 331.348C369.293 331.348 368.848 331.526 368.527 331.882C368.21 332.233 368.052 332.691 368.052 333.255V339.488H365.742V333.047C365.742 332.53 365.586 332.118 365.274 331.81C364.966 331.502 364.562 331.348 364.063 331.348C363.725 331.348 363.417 331.435 363.139 331.609C362.862 331.778 362.641 332.018 362.476 332.331C362.311 332.639 362.228 332.999 362.228 333.411V339.488H359.873ZM376.317 343.236V329.494H378.634V331.147H378.77C378.892 330.904 379.063 330.646 379.284 330.372C379.506 330.095 379.805 329.858 380.182 329.663C380.56 329.463 381.041 329.364 381.627 329.364C382.399 329.364 383.095 329.561 383.716 329.956C384.34 330.346 384.835 330.925 385.199 331.693C385.568 332.457 385.752 333.394 385.752 334.504C385.752 335.602 385.572 336.534 385.212 337.302C384.852 338.07 384.362 338.655 383.742 339.059C383.121 339.462 382.419 339.664 381.633 339.664C381.061 339.664 380.586 339.569 380.208 339.378C379.831 339.187 379.527 338.957 379.297 338.688C379.072 338.415 378.896 338.157 378.77 337.914H378.673V343.236H376.317ZM378.627 334.491C378.627 335.137 378.718 335.703 378.901 336.189C379.087 336.675 379.354 337.055 379.701 337.328C380.052 337.597 380.477 337.731 380.976 337.731C381.497 337.731 381.933 337.593 382.284 337.315C382.635 337.033 382.9 336.649 383.078 336.163C383.26 335.673 383.351 335.116 383.351 334.491C383.351 333.871 383.262 333.32 383.084 332.838C382.907 332.357 382.642 331.979 382.291 331.706C381.939 331.433 381.501 331.296 380.976 331.296C380.473 331.296 380.046 331.429 379.694 331.693C379.343 331.958 379.076 332.329 378.894 332.806C378.716 333.283 378.627 333.845 378.627 334.491ZM392.129 339.683C391.153 339.683 390.307 339.469 389.591 339.039C388.875 338.61 388.32 338.009 387.925 337.237C387.535 336.465 387.34 335.563 387.34 334.53C387.34 333.498 387.535 332.593 387.925 331.817C388.32 331.04 388.875 330.437 389.591 330.008C390.307 329.578 391.153 329.364 392.129 329.364C393.105 329.364 393.951 329.578 394.666 330.008C395.382 330.437 395.935 331.04 396.326 331.817C396.72 332.593 396.918 333.498 396.918 334.53C396.918 335.563 396.72 336.465 396.326 337.237C395.935 338.009 395.382 338.61 394.666 339.039C393.951 339.469 393.105 339.683 392.129 339.683ZM392.142 337.797C392.671 337.797 393.114 337.651 393.469 337.361C393.825 337.066 394.09 336.671 394.263 336.176C394.441 335.682 394.53 335.131 394.53 334.524C394.53 333.912 394.441 333.359 394.263 332.864C394.09 332.365 393.825 331.969 393.469 331.674C393.114 331.379 392.671 331.231 392.142 331.231C391.6 331.231 391.148 331.379 390.788 331.674C390.433 331.969 390.166 332.365 389.988 332.864C389.815 333.359 389.728 333.912 389.728 334.524C389.728 335.131 389.815 335.682 389.988 336.176C390.166 336.671 390.433 337.066 390.788 337.361C391.148 337.651 391.6 337.797 392.142 337.797ZM401.273 333.632V339.488H398.917V329.494H401.168V331.192H401.286C401.515 330.633 401.882 330.188 402.385 329.858C402.893 329.529 403.52 329.364 404.266 329.364C404.955 329.364 405.556 329.511 406.068 329.806C406.584 330.101 406.983 330.528 407.265 331.088C407.552 331.648 407.693 332.326 407.688 333.125V339.488H405.333V333.489C405.333 332.821 405.159 332.298 404.812 331.921C404.47 331.543 403.995 331.355 403.387 331.355C402.975 331.355 402.609 331.446 402.288 331.628C401.971 331.806 401.721 332.064 401.539 332.402C401.361 332.741 401.273 333.151 401.273 333.632ZM414.507 339.683C413.505 339.683 412.64 339.475 411.911 339.059C411.187 338.638 410.629 338.044 410.239 337.276C409.849 336.504 409.653 335.595 409.653 334.55C409.653 333.522 409.849 332.619 410.239 331.843C410.634 331.062 411.185 330.455 411.892 330.021C412.599 329.583 413.429 329.364 414.384 329.364C415 329.364 415.581 329.463 416.128 329.663C416.678 329.858 417.164 330.162 417.585 330.574C418.01 330.986 418.344 331.511 418.587 332.149C418.83 332.782 418.952 333.537 418.952 334.413V335.135H410.759V333.548H416.694C416.689 333.096 416.592 332.695 416.401 332.344C416.21 331.988 415.943 331.708 415.601 331.504C415.262 331.301 414.867 331.199 414.416 331.199C413.935 331.199 413.512 331.316 413.147 331.55C412.783 331.78 412.499 332.084 412.295 332.461C412.096 332.834 411.994 333.244 411.989 333.691V335.077C411.989 335.658 412.096 336.157 412.308 336.573C412.521 336.985 412.818 337.302 413.2 337.523C413.581 337.74 414.028 337.849 414.54 337.849C414.883 337.849 415.193 337.801 415.47 337.705C415.748 337.606 415.989 337.46 416.193 337.269C416.397 337.079 416.551 336.842 416.655 336.56L418.854 336.807C418.715 337.389 418.451 337.896 418.06 338.33C417.674 338.76 417.18 339.094 416.577 339.332C415.974 339.566 415.284 339.683 414.507 339.683ZM423.3 333.632V339.488H420.944V329.494H423.196V331.192H423.313C423.543 330.633 423.909 330.188 424.412 329.858C424.92 329.529 425.547 329.364 426.293 329.364C426.983 329.364 427.583 329.511 428.095 329.806C428.611 330.101 429.01 330.528 429.292 331.088C429.579 331.648 429.72 332.326 429.715 333.125V339.488H427.36V333.489C427.36 332.821 427.186 332.298 426.839 331.921C426.497 331.543 426.022 331.355 425.414 331.355C425.002 331.355 424.636 331.446 424.315 331.628C423.998 331.806 423.749 332.064 423.566 332.402C423.389 332.741 423.3 333.151 423.3 333.632ZM437.101 329.494V331.316H431.355V329.494H437.101ZM432.774 327.099H435.129V336.482C435.129 336.799 435.177 337.042 435.272 337.211C435.372 337.376 435.502 337.489 435.663 337.549C435.823 337.61 436.001 337.64 436.196 337.64C436.344 337.64 436.478 337.63 436.6 337.608C436.725 337.586 436.821 337.567 436.886 337.549L437.283 339.391C437.157 339.434 436.977 339.482 436.743 339.534C436.513 339.586 436.231 339.616 435.897 339.625C435.307 339.642 434.776 339.553 434.303 339.358C433.83 339.159 433.455 338.851 433.177 338.434C432.904 338.018 432.769 337.497 432.774 336.873V327.099ZM446.827 332.136L444.679 332.37C444.619 332.153 444.512 331.949 444.361 331.758C444.213 331.567 444.014 331.413 443.762 331.296C443.51 331.179 443.202 331.121 442.838 331.121C442.348 331.121 441.936 331.227 441.602 331.439C441.272 331.652 441.109 331.927 441.114 332.266C441.109 332.556 441.216 332.793 441.433 332.975C441.654 333.157 442.018 333.307 442.526 333.424L444.23 333.788C445.176 333.992 445.879 334.315 446.339 334.758C446.803 335.2 447.037 335.779 447.041 336.495C447.037 337.124 446.853 337.679 446.488 338.161C446.128 338.638 445.627 339.011 444.985 339.28C444.343 339.549 443.606 339.683 442.773 339.683C441.55 339.683 440.565 339.428 439.819 338.916C439.073 338.399 438.628 337.682 438.485 336.762L440.782 336.541C440.886 336.992 441.107 337.332 441.446 337.562C441.784 337.792 442.224 337.907 442.766 337.907C443.326 337.907 443.775 337.792 444.113 337.562C444.456 337.332 444.627 337.048 444.627 336.71C444.627 336.424 444.517 336.187 444.296 336.001C444.079 335.814 443.74 335.671 443.28 335.571L441.576 335.213C440.617 335.014 439.908 334.678 439.448 334.205C438.988 333.728 438.76 333.125 438.765 332.396C438.76 331.78 438.927 331.246 439.266 330.795C439.608 330.34 440.083 329.988 440.691 329.741C441.302 329.489 442.007 329.364 442.805 329.364C443.977 329.364 444.898 329.613 445.571 330.112C446.248 330.611 446.666 331.285 446.827 332.136Z" fill="white"/>
<rect x="280.678" y="84.12" width="203.221" height="72.4598" fill="white" stroke="white" stroke-width="1.66574"/>
<path d="M341.975 127.302C340.977 127.302 340.121 127.083 339.405 126.644C338.693 126.206 338.145 125.601 337.759 124.829C337.377 124.053 337.186 123.159 337.186 122.148C337.186 121.133 337.381 120.237 337.772 119.461C338.162 118.68 338.713 118.073 339.424 117.639C340.14 117.201 340.986 116.982 341.962 116.982C342.773 116.982 343.491 117.132 344.116 117.431C344.745 117.726 345.246 118.144 345.619 118.687C345.992 119.225 346.205 119.854 346.257 120.574H344.005C343.914 120.092 343.697 119.691 343.355 119.37C343.016 119.045 342.563 118.882 341.995 118.882C341.513 118.882 341.09 119.012 340.726 119.272C340.361 119.528 340.077 119.897 339.873 120.378C339.674 120.86 339.574 121.437 339.574 122.109C339.574 122.79 339.674 123.376 339.873 123.866C340.073 124.352 340.353 124.727 340.713 124.992C341.077 125.252 341.504 125.382 341.995 125.382C342.342 125.382 342.652 125.317 342.925 125.187C343.203 125.052 343.435 124.859 343.621 124.608C343.808 124.356 343.936 124.05 344.005 123.69H346.257C346.2 124.397 345.992 125.024 345.632 125.571C345.272 126.113 344.782 126.538 344.161 126.846C343.541 127.15 342.812 127.302 341.975 127.302ZM354.561 122.903V117.112H356.916V127.106H354.632V125.33H354.528C354.303 125.89 353.932 126.347 353.416 126.703C352.904 127.059 352.273 127.237 351.522 127.237C350.867 127.237 350.288 127.091 349.785 126.801C349.286 126.506 348.896 126.078 348.614 125.519C348.332 124.955 348.191 124.274 348.191 123.476V117.112H350.546V123.111C350.546 123.745 350.72 124.248 351.067 124.621C351.414 124.994 351.869 125.18 352.433 125.18C352.78 125.18 353.116 125.096 353.442 124.927C353.767 124.757 354.034 124.506 354.242 124.172C354.455 123.834 354.561 123.411 354.561 122.903ZM367.238 119.754L365.091 119.988C365.03 119.771 364.924 119.567 364.772 119.376C364.624 119.185 364.425 119.032 364.173 118.914C363.921 118.797 363.613 118.739 363.249 118.739C362.759 118.739 362.347 118.845 362.013 119.058C361.683 119.27 361.52 119.546 361.525 119.884C361.52 120.175 361.627 120.411 361.844 120.593C362.065 120.775 362.429 120.925 362.937 121.042L364.642 121.406C365.587 121.61 366.29 121.934 366.75 122.376C367.214 122.818 367.448 123.398 367.452 124.113C367.448 124.742 367.264 125.298 366.899 125.779C366.539 126.256 366.038 126.629 365.396 126.898C364.754 127.167 364.017 127.302 363.184 127.302C361.961 127.302 360.976 127.046 360.23 126.534C359.484 126.018 359.039 125.3 358.896 124.38L361.193 124.159C361.297 124.61 361.518 124.951 361.857 125.18C362.195 125.41 362.635 125.525 363.178 125.525C363.737 125.525 364.186 125.41 364.524 125.18C364.867 124.951 365.038 124.666 365.038 124.328C365.038 124.042 364.928 123.805 364.707 123.619C364.49 123.432 364.151 123.289 363.692 123.189L361.987 122.831C361.028 122.632 360.319 122.296 359.859 121.823C359.399 121.346 359.171 120.743 359.176 120.014C359.171 119.398 359.338 118.864 359.677 118.413C360.02 117.958 360.495 117.607 361.102 117.359C361.713 117.108 362.418 116.982 363.217 116.982C364.388 116.982 365.31 117.231 365.982 117.73C366.659 118.229 367.077 118.904 367.238 119.754ZM374.385 117.112V118.934H368.64V117.112H374.385ZM370.058 114.717H372.414V124.1C372.414 124.417 372.462 124.66 372.557 124.829C372.657 124.994 372.787 125.107 372.947 125.167C373.108 125.228 373.286 125.259 373.481 125.259C373.629 125.259 373.763 125.248 373.884 125.226C374.01 125.204 374.106 125.185 374.171 125.167L374.568 127.009C374.442 127.052 374.262 127.1 374.028 127.152C373.798 127.204 373.516 127.234 373.182 127.243C372.592 127.26 372.06 127.172 371.588 126.976C371.115 126.777 370.74 126.469 370.462 126.052C370.189 125.636 370.054 125.115 370.058 124.491V114.717ZM380.608 127.302C379.632 127.302 378.786 127.087 378.07 126.657C377.354 126.228 376.799 125.627 376.404 124.855C376.014 124.083 375.819 123.181 375.819 122.148C375.819 121.116 376.014 120.211 376.404 119.435C376.799 118.658 377.354 118.055 378.07 117.626C378.786 117.197 379.632 116.982 380.608 116.982C381.584 116.982 382.43 117.197 383.145 117.626C383.861 118.055 384.414 118.658 384.805 119.435C385.199 120.211 385.397 121.116 385.397 122.148C385.397 123.181 385.199 124.083 384.805 124.855C384.414 125.627 383.861 126.228 383.145 126.657C382.43 127.087 381.584 127.302 380.608 127.302ZM380.621 125.415C381.15 125.415 381.592 125.269 381.948 124.979C382.304 124.684 382.568 124.289 382.742 123.794C382.92 123.3 383.009 122.749 383.009 122.142C383.009 121.53 382.92 120.977 382.742 120.483C382.568 119.984 382.304 119.587 381.948 119.292C381.592 118.997 381.15 118.849 380.621 118.849C380.078 118.849 379.627 118.997 379.267 119.292C378.912 119.587 378.645 119.984 378.467 120.483C378.293 120.977 378.207 121.53 378.207 122.142C378.207 122.749 378.293 123.3 378.467 123.794C378.645 124.289 378.912 124.684 379.267 124.979C379.627 125.269 380.078 125.415 380.621 125.415ZM387.396 127.106V117.112H389.647V118.81H389.764C389.973 118.238 390.317 117.791 390.799 117.47C391.28 117.145 391.855 116.982 392.523 116.982C393.2 116.982 393.77 117.147 394.234 117.476C394.703 117.802 395.033 118.246 395.224 118.81H395.328C395.549 118.255 395.922 117.813 396.447 117.483C396.976 117.149 397.603 116.982 398.327 116.982C399.247 116.982 399.997 117.272 400.579 117.854C401.16 118.435 401.451 119.283 401.451 120.398V127.106H399.089V120.762C399.089 120.142 398.924 119.689 398.594 119.402C398.264 119.112 397.861 118.966 397.384 118.966C396.816 118.966 396.371 119.144 396.05 119.5C395.733 119.851 395.575 120.309 395.575 120.873V127.106H393.265V120.665C393.265 120.149 393.109 119.736 392.796 119.428C392.489 119.12 392.085 118.966 391.586 118.966C391.248 118.966 390.94 119.053 390.662 119.227C390.385 119.396 390.163 119.637 389.999 119.949C389.834 120.257 389.751 120.617 389.751 121.029V127.106H387.396ZM416.89 113.781H419.304V122.487C419.304 123.441 419.078 124.28 418.627 125.005C418.18 125.729 417.551 126.295 416.74 126.703C415.929 127.106 414.981 127.308 413.896 127.308C412.808 127.308 411.858 127.106 411.046 126.703C410.235 126.295 409.606 125.729 409.159 125.005C408.713 124.28 408.489 123.441 408.489 122.487V113.781H410.903V122.285C410.903 122.84 411.025 123.335 411.268 123.768C411.515 124.202 411.862 124.543 412.309 124.79C412.756 125.033 413.285 125.154 413.896 125.154C414.508 125.154 415.037 125.033 415.484 124.79C415.935 124.543 416.282 124.202 416.525 123.768C416.768 123.335 416.89 122.84 416.89 122.285V113.781ZM424.341 113.781V127.106H421.927V113.781H424.341Z" fill="#2F3741"/>
<rect x="29.1503" y="84.12" width="203.221" height="72.4598" fill="white" stroke="white" stroke-width="1.66574"/>
<path d="M90.4477 127.302C89.45 127.302 88.5933 127.083 87.8776 126.644C87.1661 126.206 86.6174 125.601 86.2313 124.829C85.8496 124.053 85.6587 123.159 85.6587 122.148C85.6587 121.133 85.8539 120.237 86.2443 119.461C86.6348 118.68 87.1857 118.073 87.8971 117.639C88.6128 117.201 89.4587 116.982 90.4347 116.982C91.2459 116.982 91.9638 117.132 92.5885 117.431C93.2175 117.726 93.7185 118.144 94.0916 118.687C94.4646 119.225 94.6772 119.854 94.7292 120.574H92.4779C92.3868 120.092 92.1699 119.691 91.8272 119.37C91.4888 119.045 91.0355 118.882 90.4673 118.882C89.9858 118.882 89.5628 119.012 89.1984 119.272C88.8341 119.528 88.5499 119.897 88.346 120.378C88.1465 120.86 88.0467 121.437 88.0467 122.109C88.0467 122.79 88.1465 123.376 88.346 123.866C88.5456 124.352 88.8254 124.727 89.1854 124.992C89.5498 125.252 89.9771 125.382 90.4673 125.382C90.8143 125.382 91.1245 125.317 91.3977 125.187C91.6754 125.052 91.9074 124.859 92.094 124.608C92.2805 124.356 92.4085 124.05 92.4779 123.69H94.7292C94.6728 124.397 94.4646 125.024 94.1046 125.571C93.7445 126.113 93.2543 126.538 92.634 126.846C92.0137 127.15 91.285 127.302 90.4477 127.302ZM103.034 122.903V117.112H105.389V127.106H103.105V125.33H103.001C102.775 125.89 102.405 126.347 101.888 126.703C101.376 127.059 100.745 127.237 99.9949 127.237C99.3398 127.237 98.7607 127.091 98.2575 126.801C97.7587 126.506 97.3683 126.078 97.0863 125.519C96.8043 124.955 96.6634 124.274 96.6634 123.476V117.112H99.0188V123.111C99.0188 123.745 99.1923 124.248 99.5394 124.621C99.8864 124.994 100.342 125.18 100.906 125.18C101.253 125.18 101.589 125.096 101.914 124.927C102.24 124.757 102.506 124.506 102.715 124.172C102.927 123.834 103.034 123.411 103.034 122.903ZM115.71 119.754L113.563 119.988C113.502 119.771 113.396 119.567 113.244 119.376C113.097 119.185 112.897 119.032 112.646 118.914C112.394 118.797 112.086 118.739 111.722 118.739C111.232 118.739 110.819 118.845 110.485 119.058C110.156 119.27 109.993 119.546 109.997 119.884C109.993 120.175 110.099 120.411 110.316 120.593C110.538 120.775 110.902 120.925 111.409 121.042L113.114 121.406C114.06 121.61 114.763 121.934 115.222 122.376C115.687 122.818 115.921 123.398 115.925 124.113C115.921 124.742 115.736 125.298 115.372 125.779C115.012 126.256 114.511 126.629 113.869 126.898C113.227 127.167 112.49 127.302 111.657 127.302C110.433 127.302 109.449 127.046 108.703 126.534C107.956 126.018 107.512 125.3 107.369 124.38L109.666 124.159C109.77 124.61 109.991 124.951 110.329 125.18C110.668 125.41 111.108 125.525 111.65 125.525C112.21 125.525 112.659 125.41 112.997 125.18C113.34 124.951 113.511 124.666 113.511 124.328C113.511 124.042 113.4 123.805 113.179 123.619C112.962 123.432 112.624 123.289 112.164 123.189L110.459 122.831C109.501 122.632 108.792 122.296 108.332 121.823C107.872 121.346 107.644 120.743 107.648 120.014C107.644 119.398 107.811 118.864 108.15 118.413C108.492 117.958 108.967 117.607 109.574 117.359C110.186 117.108 110.891 116.982 111.689 116.982C112.86 116.982 113.782 117.231 114.455 117.73C115.131 118.229 115.55 118.904 115.71 119.754ZM122.858 117.112V118.934H117.113V117.112H122.858ZM118.531 114.717H120.887V124.1C120.887 124.417 120.934 124.66 121.03 124.829C121.129 124.994 121.26 125.107 121.42 125.167C121.581 125.228 121.758 125.259 121.954 125.259C122.101 125.259 122.236 125.248 122.357 125.226C122.483 125.204 122.578 125.185 122.643 125.167L123.04 127.009C122.915 127.052 122.735 127.1 122.5 127.152C122.27 127.204 121.988 127.234 121.654 127.243C121.064 127.26 120.533 127.172 120.06 126.976C119.587 126.777 119.212 126.469 118.935 126.052C118.661 125.636 118.527 125.115 118.531 124.491V114.717ZM129.08 127.302C128.104 127.302 127.258 127.087 126.543 126.657C125.827 126.228 125.272 125.627 124.877 124.855C124.486 124.083 124.291 123.181 124.291 122.148C124.291 121.116 124.486 120.211 124.877 119.435C125.272 118.658 125.827 118.055 126.543 117.626C127.258 117.197 128.104 116.982 129.08 116.982C130.056 116.982 130.902 117.197 131.618 117.626C132.334 118.055 132.887 118.658 133.277 119.435C133.672 120.211 133.869 121.116 133.869 122.148C133.869 123.181 133.672 124.083 133.277 124.855C132.887 125.627 132.334 126.228 131.618 126.657C130.902 127.087 130.056 127.302 129.08 127.302ZM129.093 125.415C129.623 125.415 130.065 125.269 130.421 124.979C130.776 124.684 131.041 124.289 131.215 123.794C131.392 123.3 131.481 122.749 131.481 122.142C131.481 121.53 131.392 120.977 131.215 120.483C131.041 119.984 130.776 119.587 130.421 119.292C130.065 118.997 129.623 118.849 129.093 118.849C128.551 118.849 128.1 118.997 127.74 119.292C127.384 119.587 127.117 119.984 126.94 120.483C126.766 120.977 126.679 121.53 126.679 122.142C126.679 122.749 126.766 123.3 126.94 123.794C127.117 124.289 127.384 124.684 127.74 124.979C128.1 125.269 128.551 125.415 129.093 125.415ZM135.868 127.106V117.112H138.12V118.81H138.237C138.445 118.238 138.79 117.791 139.272 117.47C139.753 117.145 140.328 116.982 140.996 116.982C141.673 116.982 142.243 117.147 142.707 117.476C143.176 117.802 143.505 118.246 143.696 118.81H143.8C144.022 118.255 144.395 117.813 144.919 117.483C145.449 117.149 146.076 116.982 146.8 116.982C147.72 116.982 148.47 117.272 149.051 117.854C149.633 118.435 149.923 119.283 149.923 120.398V127.106H147.561V120.762C147.561 120.142 147.396 119.689 147.067 119.402C146.737 119.112 146.334 118.966 145.856 118.966C145.288 118.966 144.844 119.144 144.523 119.5C144.206 119.851 144.048 120.309 144.048 120.873V127.106H141.738V120.665C141.738 120.149 141.581 119.736 141.269 119.428C140.961 119.12 140.558 118.966 140.059 118.966C139.721 118.966 139.413 119.053 139.135 119.227C138.857 119.396 138.636 119.637 138.471 119.949C138.306 120.257 138.224 120.617 138.224 121.029V127.106H135.868ZM165.362 113.781H167.776V122.487C167.776 123.441 167.551 124.28 167.1 125.005C166.653 125.729 166.024 126.295 165.213 126.703C164.401 127.106 163.454 127.308 162.369 127.308C161.28 127.308 160.33 127.106 159.519 126.703C158.708 126.295 158.079 125.729 157.632 125.005C157.185 124.28 156.962 123.441 156.962 122.487V113.781H159.376V122.285C159.376 122.84 159.497 123.335 159.74 123.768C159.988 124.202 160.335 124.543 160.781 124.79C161.228 125.033 161.757 125.154 162.369 125.154C162.981 125.154 163.51 125.033 163.957 124.79C164.408 124.543 164.755 124.202 164.998 123.768C165.241 123.335 165.362 122.84 165.362 122.285V113.781ZM172.814 113.781V127.106H170.4V113.781H172.814Z" fill="#2F3741"/>
<rect x="538.035" y="84.12" width="203.221" height="72.4598" fill="white" stroke="white" stroke-width="1.66574"/>
<path d="M599.332 127.302C598.334 127.302 597.478 127.083 596.762 126.644C596.05 126.206 595.502 125.601 595.116 124.829C594.734 124.053 594.543 123.159 594.543 122.148C594.543 121.133 594.738 120.237 595.129 119.461C595.519 118.68 596.07 118.073 596.781 117.639C597.497 117.201 598.343 116.982 599.319 116.982C600.13 116.982 600.848 117.132 601.473 117.431C602.102 117.726 602.603 118.144 602.976 118.687C603.349 119.225 603.561 119.854 603.613 120.574H601.362C601.271 120.092 601.054 119.691 600.711 119.37C600.373 119.045 599.92 118.882 599.352 118.882C598.87 118.882 598.447 119.012 598.083 119.272C597.718 119.528 597.434 119.897 597.23 120.378C597.031 120.86 596.931 121.437 596.931 122.109C596.931 122.79 597.031 123.376 597.23 123.866C597.43 124.352 597.71 124.727 598.07 124.992C598.434 125.252 598.861 125.382 599.352 125.382C599.699 125.382 600.009 125.317 600.282 125.187C600.56 125.052 600.792 124.859 600.978 124.608C601.165 124.356 601.293 124.05 601.362 123.69H603.613C603.557 124.397 603.349 125.024 602.989 125.571C602.629 126.113 602.139 126.538 601.518 126.846C600.898 127.15 600.169 127.302 599.332 127.302ZM611.918 122.903V117.112H614.273V127.106H611.989V125.33H611.885C611.66 125.89 611.289 126.347 610.773 126.703C610.261 127.059 609.63 127.237 608.879 127.237C608.224 127.237 607.645 127.091 607.142 126.801C606.643 126.506 606.253 126.078 605.971 125.519C605.689 124.955 605.548 124.274 605.548 123.476V117.112H607.903V123.111C607.903 123.745 608.077 124.248 608.424 124.621C608.771 124.994 609.226 125.18 609.79 125.18C610.137 125.18 610.473 125.096 610.799 124.927C611.124 124.757 611.391 124.506 611.599 124.172C611.812 123.834 611.918 123.411 611.918 122.903ZM624.595 119.754L622.447 119.988C622.387 119.771 622.28 119.567 622.129 119.376C621.981 119.185 621.782 119.032 621.53 118.914C621.278 118.797 620.97 118.739 620.606 118.739C620.116 118.739 619.704 118.845 619.37 119.058C619.04 119.27 618.877 119.546 618.882 119.884C618.877 120.175 618.984 120.411 619.201 120.593C619.422 120.775 619.786 120.925 620.294 121.042L621.998 121.406C622.944 121.61 623.647 121.934 624.107 122.376C624.571 122.818 624.805 123.398 624.809 124.113C624.805 124.742 624.621 125.298 624.256 125.779C623.896 126.256 623.395 126.629 622.753 126.898C622.111 127.167 621.374 127.302 620.541 127.302C619.318 127.302 618.333 127.046 617.587 126.534C616.841 126.018 616.396 125.3 616.253 124.38L618.55 124.159C618.654 124.61 618.875 124.951 619.214 125.18C619.552 125.41 619.992 125.525 620.534 125.525C621.094 125.525 621.543 125.41 621.881 125.18C622.224 124.951 622.395 124.666 622.395 124.328C622.395 124.042 622.285 123.805 622.064 123.619C621.847 123.432 621.508 123.289 621.048 123.189L619.344 122.831C618.385 122.632 617.676 122.296 617.216 121.823C616.756 121.346 616.528 120.743 616.533 120.014C616.528 119.398 616.695 118.864 617.034 118.413C617.376 117.958 617.851 117.607 618.459 117.359C619.07 117.108 619.775 116.982 620.573 116.982C621.745 116.982 622.667 117.231 623.339 117.73C624.016 118.229 624.434 118.904 624.595 119.754ZM631.742 117.112V118.934H625.997V117.112H631.742ZM627.415 114.717H629.771V124.1C629.771 124.417 629.819 124.66 629.914 124.829C630.014 124.994 630.144 125.107 630.304 125.167C630.465 125.228 630.643 125.259 630.838 125.259C630.985 125.259 631.12 125.248 631.241 125.226C631.367 125.204 631.463 125.185 631.528 125.167L631.925 127.009C631.799 127.052 631.619 127.1 631.385 127.152C631.155 127.204 630.873 127.234 630.539 127.243C629.949 127.26 629.417 127.172 628.944 126.976C628.472 126.777 628.096 126.469 627.819 126.052C627.546 125.636 627.411 125.115 627.415 124.491V114.717ZM637.965 127.302C636.989 127.302 636.143 127.087 635.427 126.657C634.711 126.228 634.156 125.627 633.761 124.855C633.371 124.083 633.176 123.181 633.176 122.148C633.176 121.116 633.371 120.211 633.761 119.435C634.156 118.658 634.711 118.055 635.427 117.626C636.143 117.197 636.989 116.982 637.965 116.982C638.941 116.982 639.786 117.197 640.502 117.626C641.218 118.055 641.771 118.658 642.161 119.435C642.556 120.211 642.754 121.116 642.754 122.148C642.754 123.181 642.556 124.083 642.161 124.855C641.771 125.627 641.218 126.228 640.502 126.657C639.786 127.087 638.941 127.302 637.965 127.302ZM637.978 125.415C638.507 125.415 638.949 125.269 639.305 124.979C639.661 124.684 639.925 124.289 640.099 123.794C640.277 123.3 640.366 122.749 640.366 122.142C640.366 121.53 640.277 120.977 640.099 120.483C639.925 119.984 639.661 119.587 639.305 119.292C638.949 118.997 638.507 118.849 637.978 118.849C637.435 118.849 636.984 118.997 636.624 119.292C636.268 119.587 636.002 119.984 635.824 120.483C635.65 120.977 635.564 121.53 635.564 122.142C635.564 122.749 635.65 123.3 635.824 123.794C636.002 124.289 636.268 124.684 636.624 124.979C636.984 125.269 637.435 125.415 637.978 125.415ZM644.753 127.106V117.112H647.004V118.81H647.121C647.329 118.238 647.674 117.791 648.156 117.47C648.637 117.145 649.212 116.982 649.88 116.982C650.557 116.982 651.127 117.147 651.591 117.476C652.06 117.802 652.39 118.246 652.58 118.81H652.685C652.906 118.255 653.279 117.813 653.804 117.483C654.333 117.149 654.96 116.982 655.684 116.982C656.604 116.982 657.354 117.272 657.936 117.854C658.517 118.435 658.807 119.283 658.807 120.398V127.106H656.446V120.762C656.446 120.142 656.281 119.689 655.951 119.402C655.621 119.112 655.218 118.966 654.741 118.966C654.172 118.966 653.728 119.144 653.407 119.5C653.09 119.851 652.932 120.309 652.932 120.873V127.106H650.622V120.665C650.622 120.149 650.466 119.736 650.153 119.428C649.845 119.12 649.442 118.966 648.943 118.966C648.605 118.966 648.297 119.053 648.019 119.227C647.742 119.396 647.52 119.637 647.355 119.949C647.191 120.257 647.108 120.617 647.108 121.029V127.106H644.753ZM674.246 113.781H676.661V122.487C676.661 123.441 676.435 124.28 675.984 125.005C675.537 125.729 674.908 126.295 674.097 126.703C673.286 127.106 672.338 127.308 671.253 127.308C670.165 127.308 669.215 127.106 668.403 126.703C667.592 126.295 666.963 125.729 666.516 125.005C666.07 124.28 665.846 123.441 665.846 122.487V113.781H668.26V122.285C668.26 122.84 668.382 123.335 668.625 123.768C668.872 124.202 669.219 124.543 669.666 124.79C670.112 125.033 670.642 125.154 671.253 125.154C671.865 125.154 672.394 125.033 672.841 124.79C673.292 124.543 673.639 124.202 673.882 123.768C674.125 123.335 674.246 122.84 674.246 122.285V113.781ZM681.698 113.781V127.106H679.284V113.781H681.698Z" fill="#2F3741"/>
<rect x="821.211" y="175.735" width="303.165" height="202.388" fill="#B85353"/>
<path d="M913.09 283.861C912.304 283.861 911.602 283.66 910.981 283.256C910.361 282.853 909.871 282.267 909.511 281.499C909.151 280.731 908.971 279.799 908.971 278.701C908.971 277.591 909.153 276.654 909.517 275.89C909.886 275.123 910.383 274.543 911.007 274.153C911.632 273.758 912.328 273.561 913.096 273.561C913.682 273.561 914.163 273.661 914.541 273.86C914.918 274.055 915.217 274.292 915.438 274.57C915.66 274.843 915.831 275.101 915.953 275.344H916.05V270.36H918.412V283.686H916.096V282.111H915.953C915.831 282.354 915.655 282.612 915.425 282.885C915.196 283.154 914.892 283.384 914.515 283.575C914.137 283.766 913.662 283.861 913.09 283.861ZM913.747 281.929C914.246 281.929 914.671 281.794 915.022 281.525C915.373 281.252 915.64 280.872 915.822 280.387C916.005 279.901 916.096 279.335 916.096 278.688C916.096 278.042 916.005 277.48 915.822 277.003C915.645 276.526 915.38 276.155 915.029 275.89C914.682 275.626 914.254 275.493 913.747 275.493C913.222 275.493 912.784 275.63 912.432 275.903C912.081 276.177 911.816 276.554 911.639 277.036C911.461 277.517 911.372 278.068 911.372 278.688C911.372 279.313 911.461 279.87 911.639 280.361C911.821 280.846 912.087 281.23 912.439 281.512C912.795 281.79 913.231 281.929 913.747 281.929ZM925.347 283.881C924.345 283.881 923.479 283.673 922.751 283.256C922.026 282.835 921.469 282.241 921.078 281.473C920.688 280.701 920.493 279.792 920.493 278.747C920.493 277.719 920.688 276.817 921.078 276.04C921.473 275.259 922.024 274.652 922.731 274.218C923.438 273.78 924.269 273.561 925.223 273.561C925.839 273.561 926.42 273.661 926.967 273.86C927.518 274.055 928.004 274.359 928.424 274.771C928.85 275.183 929.184 275.708 929.426 276.346C929.669 276.979 929.791 277.734 929.791 278.61V279.332H921.599V277.745H927.533C927.529 277.294 927.431 276.892 927.24 276.541C927.049 276.185 926.783 275.906 926.44 275.702C926.102 275.498 925.707 275.396 925.256 275.396C924.774 275.396 924.351 275.513 923.987 275.747C923.622 275.977 923.338 276.281 923.134 276.658C922.935 277.031 922.833 277.441 922.829 277.888V279.274C922.829 279.855 922.935 280.354 923.147 280.77C923.36 281.183 923.657 281.499 924.039 281.72C924.421 281.937 924.867 282.046 925.379 282.046C925.722 282.046 926.032 281.998 926.31 281.903C926.587 281.803 926.828 281.658 927.032 281.467C927.236 281.276 927.39 281.039 927.494 280.757L929.693 281.005C929.554 281.586 929.29 282.094 928.899 282.527C928.513 282.957 928.019 283.291 927.416 283.529C926.813 283.764 926.123 283.881 925.347 283.881ZM939.683 276.333L937.536 276.567C937.475 276.35 937.369 276.146 937.217 275.955C937.069 275.765 936.87 275.611 936.618 275.493C936.367 275.376 936.059 275.318 935.694 275.318C935.204 275.318 934.792 275.424 934.458 275.637C934.128 275.849 933.966 276.125 933.97 276.463C933.966 276.754 934.072 276.99 934.289 277.172C934.51 277.354 934.874 277.504 935.382 277.621L937.087 277.986C938.032 278.189 938.735 278.513 939.195 278.955C939.659 279.398 939.893 279.977 939.898 280.692C939.893 281.321 939.709 281.877 939.344 282.358C938.984 282.835 938.483 283.208 937.841 283.477C937.199 283.746 936.462 283.881 935.629 283.881C934.406 283.881 933.421 283.625 932.675 283.113C931.929 282.597 931.484 281.879 931.341 280.959L933.638 280.738C933.742 281.189 933.963 281.53 934.302 281.76C934.64 281.989 935.08 282.104 935.623 282.104C936.182 282.104 936.631 281.989 936.969 281.76C937.312 281.53 937.484 281.245 937.484 280.907C937.484 280.621 937.373 280.384 937.152 280.198C936.935 280.011 936.596 279.868 936.137 279.768L934.432 279.411C933.473 279.211 932.764 278.875 932.304 278.402C931.844 277.925 931.617 277.322 931.621 276.593C931.617 275.977 931.784 275.444 932.122 274.992C932.465 274.537 932.94 274.186 933.547 273.938C934.159 273.687 934.863 273.561 935.662 273.561C936.833 273.561 937.755 273.81 938.427 274.309C939.104 274.808 939.522 275.483 939.683 276.333ZM941.84 283.686V273.691H944.195V283.686H941.84ZM943.024 272.273C942.647 272.273 942.324 272.149 942.055 271.902C941.79 271.65 941.658 271.349 941.658 270.997C941.658 270.642 941.792 270.34 942.061 270.093C942.33 269.841 942.651 269.715 943.024 269.715C943.397 269.715 943.716 269.841 943.981 270.093C944.25 270.34 944.384 270.642 944.384 270.997C944.384 271.349 944.25 271.65 943.981 271.902C943.716 272.149 943.397 272.273 943.024 272.273ZM950.964 287.603C950.118 287.603 949.392 287.49 948.784 287.264C948.177 287.039 947.689 286.737 947.32 286.36C946.951 285.982 946.696 285.568 946.552 285.117L948.674 284.603C948.769 284.781 948.908 284.963 949.09 285.15C949.272 285.34 949.517 285.499 949.825 285.625C950.138 285.755 950.53 285.82 951.003 285.82C951.671 285.82 952.224 285.659 952.662 285.338C953.1 285.017 953.319 284.499 953.319 283.783V281.89H953.202C953.081 282.133 952.903 282.382 952.669 282.638C952.439 282.894 952.133 283.109 951.751 283.282C951.374 283.456 950.899 283.542 950.326 283.542C949.559 283.542 948.862 283.362 948.238 283.002C947.617 282.638 947.123 282.096 946.754 281.376C946.39 280.651 946.208 279.745 946.208 278.656C946.208 277.558 946.39 276.632 946.754 275.877C947.123 275.118 947.62 274.543 948.244 274.153C948.869 273.758 949.565 273.561 950.333 273.561C950.918 273.561 951.4 273.661 951.777 273.86C952.159 274.055 952.463 274.292 952.688 274.57C952.914 274.843 953.085 275.101 953.202 275.344H953.332V273.691H955.655V283.848C955.655 284.685 955.452 285.382 955.044 285.937C954.636 286.496 954.079 286.913 953.372 287.186C952.664 287.464 951.862 287.603 950.964 287.603ZM950.984 281.694C951.482 281.694 951.907 281.573 952.259 281.33C952.61 281.087 952.877 280.738 953.059 280.282C953.241 279.827 953.332 279.28 953.332 278.643C953.332 278.014 953.241 277.463 953.059 276.99C952.881 276.517 952.617 276.151 952.265 275.89C951.918 275.626 951.491 275.493 950.984 275.493C950.459 275.493 950.021 275.63 949.669 275.903C949.318 276.177 949.053 276.552 948.875 277.029C948.697 277.502 948.609 278.04 948.609 278.643C948.609 279.254 948.697 279.79 948.875 280.25C949.058 280.705 949.324 281.061 949.676 281.317C950.031 281.569 950.467 281.694 950.984 281.694ZM960.425 277.829V283.686H958.069V273.691H960.321V275.389H960.438C960.668 274.83 961.034 274.385 961.538 274.055C962.045 273.726 962.672 273.561 963.418 273.561C964.108 273.561 964.709 273.708 965.22 274.003C965.737 274.298 966.136 274.726 966.418 275.285C966.704 275.845 966.845 276.524 966.841 277.322V283.686H964.485V277.686C964.485 277.018 964.312 276.496 963.965 276.118C963.622 275.741 963.147 275.552 962.54 275.552C962.128 275.552 961.761 275.643 961.44 275.825C961.123 276.003 960.874 276.261 960.692 276.6C960.514 276.938 960.425 277.348 960.425 277.829ZM981.679 276.333L979.532 276.567C979.471 276.35 979.365 276.146 979.213 275.955C979.066 275.765 978.866 275.611 978.615 275.493C978.363 275.376 978.055 275.318 977.691 275.318C977.201 275.318 976.788 275.424 976.454 275.637C976.125 275.849 975.962 276.125 975.966 276.463C975.962 276.754 976.068 276.99 976.285 277.172C976.506 277.354 976.871 277.504 977.378 277.621L979.083 277.986C980.029 278.189 980.732 278.513 981.191 278.955C981.656 279.398 981.89 279.977 981.894 280.692C981.89 281.321 981.705 281.877 981.341 282.358C980.981 282.835 980.48 283.208 979.838 283.477C979.196 283.746 978.459 283.881 977.626 283.881C976.402 283.881 975.418 283.625 974.672 283.113C973.925 282.597 973.481 281.879 973.338 280.959L975.635 280.738C975.739 281.189 975.96 281.53 976.298 281.76C976.637 281.989 977.077 282.104 977.619 282.104C978.179 282.104 978.628 281.989 978.966 281.76C979.309 281.53 979.48 281.245 979.48 280.907C979.48 280.621 979.369 280.384 979.148 280.198C978.931 280.011 978.593 279.868 978.133 279.768L976.428 279.411C975.47 279.211 974.76 278.875 974.301 278.402C973.841 277.925 973.613 277.322 973.617 276.593C973.613 275.977 973.78 275.444 974.118 274.992C974.461 274.537 974.936 274.186 975.543 273.938C976.155 273.687 976.86 273.561 977.658 273.561C978.829 273.561 979.751 273.81 980.424 274.309C981.1 274.808 981.519 275.483 981.679 276.333ZM985.3 287.414C984.979 287.414 984.682 287.388 984.409 287.336C984.14 287.288 983.925 287.23 983.765 287.16L984.311 285.332C984.823 285.479 985.253 285.503 985.6 285.403C985.951 285.308 986.24 284.985 986.465 284.434L986.667 283.894L983.043 273.691H985.541L987.845 281.239H987.949L990.259 273.691L992.777 273.704L988.762 284.896C988.576 285.416 988.328 285.865 988.02 286.243C987.712 286.62 987.335 286.909 986.888 287.108C986.446 287.312 985.916 287.414 985.3 287.414ZM1002.31 276.333L1000.16 276.567C1000.1 276.35 999.997 276.146 999.845 275.955C999.697 275.765 999.498 275.611 999.246 275.493C998.995 275.376 998.687 275.318 998.322 275.318C997.832 275.318 997.42 275.424 997.086 275.637C996.756 275.849 996.594 276.125 996.598 276.463C996.594 276.754 996.7 276.99 996.917 277.172C997.138 277.354 997.502 277.504 998.01 277.621L999.715 277.986C1000.66 278.189 1001.36 278.513 1001.82 278.955C1002.29 279.398 1002.52 279.977 1002.53 280.692C1002.52 281.321 1002.34 281.877 1001.97 282.358C1001.61 282.835 1001.11 283.208 1000.47 283.477C999.827 283.746 999.09 283.881 998.257 283.881C997.034 283.881 996.049 283.625 995.303 283.113C994.557 282.597 994.112 281.879 993.969 280.959L996.266 280.738C996.37 281.189 996.591 281.53 996.93 281.76C997.268 281.989 997.708 282.104 998.251 282.104C998.81 282.104 999.259 281.989 999.597 281.76C999.94 281.53 1000.11 281.245 1000.11 280.907C1000.11 280.621 1000 280.384 999.78 280.198C999.563 280.011 999.224 279.868 998.765 279.768L997.06 279.411C996.101 279.211 995.392 278.875 994.932 278.402C994.472 277.925 994.245 277.322 994.249 276.593C994.245 275.977 994.412 275.444 994.75 274.992C995.093 274.537 995.568 274.186 996.175 273.938C996.787 273.687 997.491 273.561 998.29 273.561C999.461 273.561 1000.38 273.81 1001.06 274.309C1001.73 274.808 1002.15 275.483 1002.31 276.333ZM1009.46 273.691V275.513H1003.71V273.691H1009.46ZM1005.13 271.297H1007.49V280.679C1007.49 280.996 1007.53 281.239 1007.63 281.408C1007.73 281.573 1007.86 281.686 1008.02 281.747C1008.18 281.807 1008.36 281.838 1008.55 281.838C1008.7 281.838 1008.84 281.827 1008.96 281.805C1009.08 281.783 1009.18 281.764 1009.24 281.747L1009.64 283.588C1009.51 283.631 1009.33 283.679 1009.1 283.731C1008.87 283.783 1008.59 283.814 1008.25 283.822C1007.66 283.84 1007.13 283.751 1006.66 283.555C1006.19 283.356 1005.81 283.048 1005.53 282.631C1005.26 282.215 1005.13 281.694 1005.13 281.07V271.297ZM1015.75 283.881C1014.74 283.881 1013.88 283.673 1013.15 283.256C1012.43 282.835 1011.87 282.241 1011.48 281.473C1011.09 280.701 1010.89 279.792 1010.89 278.747C1010.89 277.719 1011.09 276.817 1011.48 276.04C1011.87 275.259 1012.42 274.652 1013.13 274.218C1013.84 273.78 1014.67 273.561 1015.62 273.561C1016.24 273.561 1016.82 273.661 1017.37 273.86C1017.92 274.055 1018.4 274.359 1018.82 274.771C1019.25 275.183 1019.58 275.708 1019.83 276.346C1020.07 276.979 1020.19 277.734 1020.19 278.61V279.332H1012V277.745H1017.93C1017.93 277.294 1017.83 276.892 1017.64 276.541C1017.45 276.185 1017.18 275.906 1016.84 275.702C1016.5 275.498 1016.11 275.396 1015.65 275.396C1015.17 275.396 1014.75 275.513 1014.39 275.747C1014.02 275.977 1013.74 276.281 1013.53 276.658C1013.33 277.031 1013.23 277.441 1013.23 277.888V279.274C1013.23 279.855 1013.33 280.354 1013.55 280.77C1013.76 281.183 1014.06 281.499 1014.44 281.72C1014.82 281.937 1015.27 282.046 1015.78 282.046C1016.12 282.046 1016.43 281.998 1016.71 281.903C1016.99 281.803 1017.23 281.658 1017.43 281.467C1017.63 281.276 1017.79 281.039 1017.89 280.757L1020.09 281.005C1019.95 281.586 1019.69 282.094 1019.3 282.527C1018.91 282.957 1018.42 283.291 1017.81 283.529C1017.21 283.764 1016.52 283.881 1015.75 283.881ZM1022.18 283.686V273.691H1024.43V275.389H1024.55C1024.76 274.817 1025.1 274.37 1025.59 274.049C1026.07 273.724 1026.64 273.561 1027.31 273.561C1027.99 273.561 1028.56 273.726 1029.02 274.055C1029.49 274.381 1029.82 274.825 1030.01 275.389H1030.11C1030.34 274.834 1030.71 274.392 1031.23 274.062C1031.76 273.728 1032.39 273.561 1033.11 273.561C1034.03 273.561 1034.78 273.852 1035.37 274.433C1035.95 275.014 1036.24 275.862 1036.24 276.977V283.686H1033.88V277.341C1033.88 276.721 1033.71 276.268 1033.38 275.981C1033.05 275.691 1032.65 275.546 1032.17 275.546C1031.6 275.546 1031.16 275.723 1030.84 276.079C1030.52 276.43 1030.36 276.888 1030.36 277.452V283.686H1028.05V277.244C1028.05 276.728 1027.9 276.316 1027.58 276.008C1027.28 275.7 1026.87 275.546 1026.37 275.546C1026.03 275.546 1025.73 275.632 1025.45 275.806C1025.17 275.975 1024.95 276.216 1024.79 276.528C1024.62 276.836 1024.54 277.196 1024.54 277.608V283.686H1022.18Z" fill="white"/>
<path d="M911.835 131.024C910.989 131.024 910.263 130.911 909.655 130.685C909.048 130.46 908.56 130.158 908.191 129.781C907.823 129.403 907.567 128.989 907.423 128.538L909.545 128.024C909.64 128.202 909.779 128.384 909.961 128.57C910.143 128.761 910.388 128.92 910.696 129.045C911.009 129.176 911.401 129.241 911.874 129.241C912.542 129.241 913.095 129.08 913.533 128.759C913.971 128.438 914.191 127.92 914.191 127.204V125.311H914.073C913.952 125.553 913.774 125.803 913.54 126.059C913.31 126.315 913.004 126.53 912.622 126.703C912.245 126.877 911.77 126.963 911.197 126.963C910.43 126.963 909.733 126.783 909.109 126.423C908.488 126.059 907.994 125.517 907.625 124.797C907.261 124.072 907.079 123.165 907.079 122.077C907.079 120.979 907.261 120.053 907.625 119.298C907.994 118.539 908.491 117.964 909.115 117.574C909.74 117.179 910.436 116.982 911.204 116.982C911.79 116.982 912.271 117.082 912.648 117.281C913.03 117.476 913.334 117.713 913.559 117.99C913.785 118.264 913.956 118.522 914.073 118.765H914.204V117.112H916.526V127.269C916.526 128.106 916.323 128.803 915.915 129.358C915.507 129.917 914.95 130.334 914.243 130.607C913.536 130.885 912.733 131.024 911.835 131.024ZM911.855 125.115C912.353 125.115 912.779 124.994 913.13 124.751C913.481 124.508 913.748 124.159 913.93 123.703C914.112 123.248 914.204 122.701 914.204 122.064C914.204 121.435 914.112 120.884 913.93 120.411C913.752 119.938 913.488 119.572 913.136 119.311C912.789 119.047 912.362 118.914 911.855 118.914C911.33 118.914 910.892 119.051 910.54 119.324C910.189 119.598 909.924 119.973 909.746 120.45C909.569 120.923 909.48 121.461 909.48 122.064C909.48 122.675 909.569 123.211 909.746 123.671C909.929 124.126 910.195 124.482 910.547 124.738C910.902 124.99 911.338 125.115 911.855 125.115ZM921.296 113.781V127.106H918.941V113.781H921.296ZM928.078 127.302C927.102 127.302 926.256 127.087 925.54 126.657C924.824 126.228 924.269 125.627 923.874 124.855C923.484 124.083 923.289 123.181 923.289 122.148C923.289 121.116 923.484 120.211 923.874 119.435C924.269 118.658 924.824 118.055 925.54 117.626C926.256 117.197 927.102 116.982 928.078 116.982C929.054 116.982 929.9 117.197 930.615 117.626C931.331 118.055 931.884 118.658 932.275 119.435C932.669 120.211 932.867 121.116 932.867 122.148C932.867 123.181 932.669 124.083 932.275 124.855C931.884 125.627 931.331 126.228 930.615 126.657C929.9 127.087 929.054 127.302 928.078 127.302ZM928.091 125.415C928.62 125.415 929.062 125.269 929.418 124.979C929.774 124.684 930.038 124.289 930.212 123.794C930.39 123.3 930.479 122.749 930.479 122.142C930.479 121.53 930.39 120.977 930.212 120.483C930.038 119.984 929.774 119.587 929.418 119.292C929.062 118.997 928.62 118.849 928.091 118.849C927.548 118.849 927.097 118.997 926.737 119.292C926.382 119.587 926.115 119.984 925.937 120.483C925.763 120.977 925.677 121.53 925.677 122.142C925.677 122.749 925.763 123.3 925.937 123.794C926.115 124.289 926.382 124.684 926.737 124.979C927.097 125.269 927.548 125.415 928.091 125.415ZM934.97 127.106V113.781H937.325V118.765H937.423C937.545 118.522 937.716 118.264 937.937 117.99C938.158 117.713 938.458 117.476 938.835 117.281C939.212 117.082 939.694 116.982 940.28 116.982C941.052 116.982 941.748 117.179 942.368 117.574C942.993 117.964 943.487 118.543 943.852 119.311C944.221 120.075 944.405 121.012 944.405 122.122C944.405 123.22 944.225 124.152 943.865 124.92C943.505 125.688 943.015 126.274 942.394 126.677C941.774 127.08 941.071 127.282 940.286 127.282C939.713 127.282 939.238 127.187 938.861 126.996C938.484 126.805 938.18 126.575 937.95 126.306C937.725 126.033 937.549 125.775 937.423 125.532H937.286V127.106H934.97ZM937.28 122.109C937.28 122.756 937.371 123.322 937.553 123.807C937.74 124.293 938.007 124.673 938.354 124.946C938.705 125.215 939.13 125.35 939.629 125.35C940.149 125.35 940.585 125.211 940.937 124.933C941.288 124.651 941.553 124.267 941.731 123.781C941.913 123.291 942.004 122.734 942.004 122.109C942.004 121.489 941.915 120.938 941.737 120.456C941.559 119.975 941.295 119.598 940.943 119.324C940.592 119.051 940.154 118.914 939.629 118.914C939.126 118.914 938.698 119.047 938.347 119.311C937.996 119.576 937.729 119.947 937.547 120.424C937.369 120.901 937.28 121.463 937.28 122.109ZM949.283 127.308C948.65 127.308 948.08 127.195 947.572 126.97C947.069 126.74 946.67 126.402 946.375 125.955C946.084 125.508 945.939 124.957 945.939 124.302C945.939 123.738 946.043 123.272 946.251 122.903C946.459 122.534 946.744 122.239 947.104 122.018C947.464 121.797 947.869 121.63 948.32 121.517C948.776 121.4 949.246 121.315 949.732 121.263C950.318 121.203 950.793 121.148 951.157 121.101C951.522 121.049 951.786 120.971 951.951 120.866C952.12 120.758 952.205 120.591 952.205 120.365V120.326C952.205 119.836 952.06 119.457 951.769 119.188C951.478 118.919 951.06 118.784 950.513 118.784C949.936 118.784 949.479 118.91 949.14 119.162C948.806 119.413 948.581 119.71 948.464 120.053L946.264 119.741C946.438 119.133 946.724 118.626 947.123 118.218C947.522 117.806 948.01 117.498 948.587 117.294C949.164 117.086 949.802 116.982 950.5 116.982C950.982 116.982 951.461 117.038 951.938 117.151C952.415 117.264 952.851 117.45 953.246 117.711C953.641 117.967 953.957 118.316 954.196 118.758C954.439 119.201 954.56 119.754 954.56 120.417V127.106H952.296V125.734H952.218C952.075 126.011 951.873 126.271 951.613 126.514C951.357 126.753 951.034 126.946 950.643 127.093C950.257 127.237 949.804 127.308 949.283 127.308ZM949.895 125.577C950.368 125.577 950.778 125.484 951.125 125.298C951.472 125.107 951.739 124.855 951.925 124.543C952.116 124.23 952.211 123.89 952.211 123.521V122.343C952.138 122.404 952.012 122.461 951.834 122.513C951.661 122.565 951.465 122.61 951.248 122.649C951.032 122.688 950.817 122.723 950.604 122.753C950.392 122.784 950.207 122.81 950.051 122.831C949.7 122.879 949.385 122.957 949.108 123.066C948.83 123.174 948.611 123.326 948.45 123.521C948.29 123.712 948.21 123.959 948.21 124.263C948.21 124.697 948.368 125.024 948.685 125.245C949.001 125.467 949.405 125.577 949.895 125.577ZM959.284 113.781V127.106H956.929V113.781H959.284ZM966.251 130.854V117.112H968.568V118.765H968.705C968.826 118.522 968.997 118.264 969.219 117.99C969.44 117.713 969.739 117.476 970.117 117.281C970.494 117.082 970.975 116.982 971.561 116.982C972.333 116.982 973.029 117.179 973.65 117.574C974.274 117.964 974.769 118.543 975.133 119.311C975.502 120.075 975.686 121.012 975.686 122.122C975.686 123.22 975.506 124.152 975.146 124.92C974.786 125.688 974.296 126.274 973.676 126.677C973.055 127.08 972.353 127.282 971.568 127.282C970.995 127.282 970.52 127.187 970.143 126.996C969.765 126.805 969.462 126.575 969.232 126.306C969.006 126.033 968.83 125.775 968.705 125.532H968.607V130.854H966.251ZM968.561 122.109C968.561 122.756 968.652 123.322 968.835 123.807C969.021 124.293 969.288 124.673 969.635 124.946C969.986 125.215 970.411 125.35 970.91 125.35C971.431 125.35 971.867 125.211 972.218 124.933C972.57 124.651 972.834 124.267 973.012 123.781C973.194 123.291 973.285 122.734 973.285 122.109C973.285 121.489 973.196 120.938 973.019 120.456C972.841 119.975 972.576 119.598 972.225 119.324C971.873 119.051 971.435 118.914 970.91 118.914C970.407 118.914 969.98 119.047 969.629 119.311C969.277 119.576 969.01 119.947 968.828 120.424C968.65 120.901 968.561 121.463 968.561 122.109ZM980.059 113.781V127.106H977.703V113.781H980.059ZM985.357 127.308C984.724 127.308 984.153 127.195 983.646 126.97C983.143 126.74 982.744 126.402 982.449 125.955C982.158 125.508 982.013 124.957 982.013 124.302C982.013 123.738 982.117 123.272 982.325 122.903C982.533 122.534 982.817 122.239 983.177 122.018C983.537 121.797 983.943 121.63 984.394 121.517C984.85 121.4 985.32 121.315 985.806 121.263C986.392 121.203 986.867 121.148 987.231 121.101C987.595 121.049 987.86 120.971 988.025 120.866C988.194 120.758 988.279 120.591 988.279 120.365V120.326C988.279 119.836 988.133 119.457 987.843 119.188C987.552 118.919 987.133 118.784 986.587 118.784C986.01 118.784 985.552 118.91 985.214 119.162C984.88 119.413 984.654 119.71 984.537 120.053L982.338 119.741C982.511 119.133 982.798 118.626 983.197 118.218C983.596 117.806 984.084 117.498 984.661 117.294C985.238 117.086 985.875 116.982 986.574 116.982C987.055 116.982 987.535 117.038 988.012 117.151C988.489 117.264 988.925 117.45 989.32 117.711C989.714 117.967 990.031 118.316 990.27 118.758C990.513 119.201 990.634 119.754 990.634 120.417V127.106H988.37V125.734H988.292C988.149 126.011 987.947 126.271 987.687 126.514C987.431 126.753 987.107 126.946 986.717 127.093C986.331 127.237 985.878 127.308 985.357 127.308ZM985.969 125.577C986.442 125.577 986.851 125.484 987.199 125.298C987.546 125.107 987.812 124.855 987.999 124.543C988.19 124.23 988.285 123.89 988.285 123.521V122.343C988.211 122.404 988.086 122.461 987.908 122.513C987.734 122.565 987.539 122.61 987.322 122.649C987.105 122.688 986.891 122.723 986.678 122.753C986.465 122.784 986.281 122.81 986.125 122.831C985.774 122.879 985.459 122.957 985.181 123.066C984.904 123.174 984.685 123.326 984.524 123.521C984.364 123.712 984.283 123.959 984.283 124.263C984.283 124.697 984.442 125.024 984.758 125.245C985.075 125.467 985.479 125.577 985.969 125.577ZM997.993 117.112V118.934H992.248V117.112H997.993ZM993.666 114.717H996.022V124.1C996.022 124.417 996.069 124.66 996.165 124.829C996.265 124.994 996.395 125.107 996.555 125.167C996.716 125.228 996.894 125.259 997.089 125.259C997.236 125.259 997.371 125.248 997.492 125.226C997.618 125.204 997.714 125.185 997.779 125.167L998.175 127.009C998.05 127.052 997.87 127.1 997.635 127.152C997.406 127.204 997.124 127.234 996.79 127.243C996.2 127.26 995.668 127.172 995.195 126.976C994.723 126.777 994.347 126.469 994.07 126.052C993.796 125.636 993.662 125.115 993.666 124.491V114.717ZM1005.03 117.112V118.934H999.117V117.112H1005.03ZM1000.59 127.106V116.169C1000.59 115.496 1000.73 114.937 1001.01 114.49C1001.29 114.043 1001.67 113.709 1002.14 113.488C1002.62 113.266 1003.14 113.156 1003.72 113.156C1004.13 113.156 1004.49 113.188 1004.8 113.253C1005.12 113.319 1005.36 113.377 1005.51 113.429L1005.04 115.251C1004.94 115.221 1004.81 115.19 1004.66 115.16C1004.51 115.125 1004.34 115.108 1004.15 115.108C1003.72 115.108 1003.41 115.214 1003.22 115.427C1003.05 115.635 1002.96 115.934 1002.96 116.325V127.106H1000.59ZM1010.85 127.302C1009.88 127.302 1009.03 127.087 1008.32 126.657C1007.6 126.228 1007.05 125.627 1006.65 124.855C1006.26 124.083 1006.06 123.181 1006.06 122.148C1006.06 121.116 1006.26 120.211 1006.65 119.435C1007.05 118.658 1007.6 118.055 1008.32 117.626C1009.03 117.197 1009.88 116.982 1010.85 116.982C1011.83 116.982 1012.68 117.197 1013.39 117.626C1014.11 118.055 1014.66 118.658 1015.05 119.435C1015.45 120.211 1015.64 121.116 1015.64 122.148C1015.64 123.181 1015.45 124.083 1015.05 124.855C1014.66 125.627 1014.11 126.228 1013.39 126.657C1012.68 127.087 1011.83 127.302 1010.85 127.302ZM1010.87 125.415C1011.4 125.415 1011.84 125.269 1012.19 124.979C1012.55 124.684 1012.81 124.289 1012.99 123.794C1013.17 123.3 1013.26 122.749 1013.26 122.142C1013.26 121.53 1013.17 120.977 1012.99 120.483C1012.81 119.984 1012.55 119.587 1012.19 119.292C1011.84 118.997 1011.4 118.849 1010.87 118.849C1010.32 118.849 1009.87 118.997 1009.51 119.292C1009.16 119.587 1008.89 119.984 1008.71 120.483C1008.54 120.977 1008.45 121.53 1008.45 122.142C1008.45 122.749 1008.54 123.3 1008.71 123.794C1008.89 124.289 1009.16 124.684 1009.51 124.979C1009.87 125.269 1010.32 125.415 1010.87 125.415ZM1017.64 127.106V117.112H1019.93V118.778H1020.03C1020.21 118.201 1020.52 117.756 1020.97 117.444C1021.41 117.127 1021.92 116.969 1022.5 116.969C1022.63 116.969 1022.77 116.975 1022.93 116.988C1023.1 116.997 1023.23 117.012 1023.34 117.034V119.201C1023.24 119.166 1023.08 119.136 1022.87 119.11C1022.65 119.079 1022.45 119.064 1022.25 119.064C1021.82 119.064 1021.43 119.157 1021.09 119.344C1020.75 119.526 1020.49 119.78 1020.29 120.105C1020.1 120.43 1020 120.806 1020 121.231V127.106H1017.64ZM1024.91 127.106V117.112H1027.16V118.81H1027.28C1027.48 118.238 1027.83 117.791 1028.31 117.47C1028.79 117.145 1029.37 116.982 1030.03 116.982C1030.71 116.982 1031.28 117.147 1031.75 117.476C1032.21 117.802 1032.54 118.246 1032.73 118.81H1032.84C1033.06 118.255 1033.43 117.813 1033.96 117.483C1034.49 117.149 1035.11 116.982 1035.84 116.982C1036.76 116.982 1037.51 117.272 1038.09 117.854C1038.67 118.435 1038.96 119.283 1038.96 120.398V127.106H1036.6V120.762C1036.6 120.142 1036.43 119.689 1036.11 119.402C1035.78 119.112 1035.37 118.966 1034.9 118.966C1034.33 118.966 1033.88 119.144 1033.56 119.5C1033.24 119.851 1033.09 120.309 1033.09 120.873V127.106H1030.78V120.665C1030.78 120.149 1030.62 119.736 1030.31 119.428C1030 119.12 1029.6 118.966 1029.1 118.966C1028.76 118.966 1028.45 119.053 1028.17 119.227C1027.9 119.396 1027.67 119.637 1027.51 119.949C1027.34 120.257 1027.26 120.617 1027.26 121.029V127.106H1024.91Z" fill="white"/>
<path d="M781.233 276.513L798.099 259.923L798.099 293.103L781.233 276.513Z" fill="#F4F784"/>
</svg>
