<svg width="2215" height="457" viewBox="0 0 2215 457" fill="none" xmlns="http://www.w3.org/2000/svg">
<circle cx="62" cy="100" r="25" fill="#FB8282"/>
<circle cx="128" cy="180" r="24.5" fill="#25B4D4" stroke="#25B4D4"/>
<circle cx="37" cy="192" r="25" fill="white"/>
<path d="M19.6882 409H9.83026V379.909H19.8871C22.7753 379.909 25.2564 380.491 27.3303 381.656C29.4136 382.812 31.014 384.473 32.1314 386.642C33.2488 388.811 33.8075 391.405 33.8075 394.426C33.8075 397.456 33.2441 400.061 32.1172 402.239C30.9998 404.417 29.3852 406.088 27.2734 407.253C25.1712 408.418 22.6428 409 19.6882 409ZM15.1001 404.44H19.4325C21.459 404.44 23.1494 404.071 24.5036 403.332C25.8577 402.584 26.8757 401.472 27.5575 399.994C28.2393 398.508 28.5803 396.652 28.5803 394.426C28.5803 392.201 28.2393 390.354 27.5575 388.886C26.8757 387.409 25.8672 386.306 24.532 385.577C23.2062 384.838 21.5585 384.469 19.5888 384.469H15.1001V404.44ZM38.8146 409V379.909H57.7351V384.327H44.0845V392.224H56.755V396.642H44.0845V404.582H57.8487V409H38.8146ZM78.9212 387.906C78.7886 386.666 78.2299 385.7 77.245 385.009C76.2697 384.317 75.0007 383.972 73.4382 383.972C72.3397 383.972 71.3975 384.137 70.6115 384.469C69.8255 384.8 69.2242 385.25 68.8075 385.818C68.3909 386.386 68.1778 387.035 68.1683 387.764C68.1683 388.37 68.3056 388.896 68.5803 389.341C68.8643 389.786 69.2479 390.165 69.7308 390.477C70.2138 390.78 70.7488 391.036 71.3359 391.244C71.9231 391.453 72.5149 391.628 73.1115 391.77L75.8388 392.452C76.9373 392.707 77.9931 393.053 79.0064 393.489C80.0291 393.924 80.9429 394.473 81.7479 395.136C82.5623 395.799 83.2062 396.599 83.6797 397.537C84.1532 398.474 84.3899 399.573 84.3899 400.832C84.3899 402.537 83.9543 404.038 83.0831 405.335C82.2119 406.623 80.9524 407.632 79.3047 408.361C77.6664 409.08 75.6825 409.44 73.353 409.44C71.0897 409.44 69.1248 409.09 67.4581 408.389C65.8009 407.688 64.5036 406.666 63.5661 405.321C62.638 403.976 62.1361 402.338 62.0604 400.406H67.245C67.3208 401.42 67.6333 402.262 68.1825 402.935C68.7318 403.607 69.4467 404.109 70.3274 404.44C71.2176 404.772 72.2119 404.938 73.3104 404.938C74.4562 404.938 75.46 404.767 76.3217 404.426C77.1929 404.076 77.8748 403.593 78.3672 402.977C78.8596 402.352 79.1106 401.623 79.12 400.79C79.1106 400.032 78.888 399.407 78.4524 398.915C78.0168 398.413 77.406 397.996 76.62 397.665C75.8435 397.324 74.9344 397.021 73.8928 396.756L70.5831 395.903C68.1873 395.288 66.2933 394.355 64.9013 393.105C63.5187 391.846 62.8274 390.174 62.8274 388.091C62.8274 386.377 63.2914 384.876 64.2195 383.588C65.157 382.3 66.4306 381.301 68.0405 380.591C69.6503 379.871 71.4732 379.511 73.5092 379.511C75.5736 379.511 77.3823 379.871 78.9354 380.591C80.4979 381.301 81.7242 382.291 82.6143 383.56C83.5045 384.819 83.9638 386.268 83.9922 387.906H78.9212ZM94.358 379.909V409H89.0881V379.909H94.358ZM119.553 389.199C119.317 388.432 118.99 387.745 118.573 387.139C118.166 386.524 117.674 385.998 117.096 385.562C116.528 385.127 115.874 384.8 115.136 384.582C114.397 384.355 113.592 384.241 112.721 384.241C111.158 384.241 109.766 384.634 108.545 385.42C107.323 386.206 106.362 387.362 105.661 388.886C104.97 390.402 104.624 392.248 104.624 394.426C104.624 396.623 104.97 398.484 105.661 400.009C106.353 401.533 107.314 402.693 108.545 403.489C109.776 404.275 111.206 404.668 112.835 404.668C114.312 404.668 115.59 404.384 116.67 403.815C117.759 403.247 118.597 402.442 119.184 401.401C119.771 400.349 120.065 399.118 120.065 397.707L121.258 397.892H113.36V393.773H125.164V397.267C125.164 399.758 124.634 401.912 123.573 403.73C122.513 405.548 121.054 406.95 119.198 407.935C117.342 408.91 115.211 409.398 112.806 409.398C110.126 409.398 107.773 408.796 105.746 407.594C103.729 406.382 102.153 404.663 101.016 402.438C99.8894 400.203 99.326 397.551 99.326 394.483C99.326 392.134 99.6574 390.037 100.32 388.19C100.993 386.344 101.93 384.777 103.133 383.489C104.335 382.191 105.746 381.206 107.366 380.534C108.985 379.852 110.746 379.511 112.65 379.511C114.26 379.511 115.761 379.748 117.153 380.222C118.545 380.686 119.781 381.348 120.86 382.21C121.949 383.072 122.844 384.095 123.545 385.278C124.246 386.462 124.705 387.769 124.923 389.199H119.553ZM154.166 379.909V409H149.479L135.771 389.185H135.53V409H130.26V379.909H134.976L148.669 399.739H148.925V379.909H154.166ZM2.02841 431.327V426.909H25.2386V431.327H16.2472V456H11.0199V431.327H2.02841ZM54.4574 441.455C54.4574 444.589 53.8703 447.274 52.696 449.509C51.5313 451.734 49.9403 453.438 47.9233 454.622C45.9157 455.806 43.6383 456.398 41.0909 456.398C38.5436 456.398 36.2614 455.806 34.2443 454.622C32.2367 453.429 30.6458 451.72 29.4716 449.494C28.3068 447.259 27.7244 444.58 27.7244 441.455C27.7244 438.32 28.3068 435.64 29.4716 433.415C30.6458 431.18 32.2367 429.471 34.2443 428.287C36.2614 427.103 38.5436 426.511 41.0909 426.511C43.6383 426.511 45.9157 427.103 47.9233 428.287C49.9403 429.471 51.5313 431.18 52.696 433.415C53.8703 435.64 54.4574 438.32 54.4574 441.455ZM49.1591 441.455C49.1591 439.248 48.8134 437.387 48.1222 435.872C47.4403 434.348 46.4934 433.197 45.2812 432.42C44.0691 431.634 42.6723 431.241 41.0909 431.241C39.5095 431.241 38.1127 431.634 36.9006 432.42C35.6884 433.197 34.7367 434.348 34.0455 435.872C33.3636 437.387 33.0227 439.248 33.0227 441.455C33.0227 443.661 33.3636 445.527 34.0455 447.051C34.7367 448.566 35.6884 449.717 36.9006 450.503C38.1127 451.279 39.5095 451.668 41.0909 451.668C42.6723 451.668 44.0691 451.279 45.2812 450.503C46.4934 449.717 47.4403 448.566 48.1222 447.051C48.8134 445.527 49.1591 443.661 49.1591 441.455ZM59.4396 456V426.909H64.7095V440.276H65.0646L76.4141 426.909H82.8487L71.5987 439.963L82.9482 456H76.6129L67.9339 443.528L64.7095 447.335V456H59.4396ZM86.5099 456V426.909H105.43V431.327H91.7798V439.224H104.45V443.642H91.7798V451.582H105.544V456H86.5099ZM134.713 426.909V456H130.026L116.318 436.185H116.077V456H110.807V426.909H115.523L129.216 446.739H129.472V426.909H134.713ZM156.265 434.906C156.132 433.666 155.574 432.7 154.589 432.009C153.613 431.317 152.344 430.972 150.782 430.972C149.683 430.972 148.741 431.137 147.955 431.469C147.169 431.8 146.568 432.25 146.151 432.818C145.735 433.386 145.522 434.035 145.512 434.764C145.512 435.37 145.649 435.896 145.924 436.341C146.208 436.786 146.592 437.165 147.075 437.477C147.558 437.78 148.093 438.036 148.68 438.244C149.267 438.453 149.859 438.628 150.455 438.77L153.183 439.452C154.281 439.707 155.337 440.053 156.35 440.489C157.373 440.924 158.287 441.473 159.092 442.136C159.906 442.799 160.55 443.599 161.023 444.537C161.497 445.474 161.734 446.573 161.734 447.832C161.734 449.537 161.298 451.038 160.427 452.335C159.556 453.623 158.296 454.632 156.648 455.361C155.01 456.08 153.026 456.44 150.697 456.44C148.433 456.44 146.469 456.09 144.802 455.389C143.145 454.688 141.847 453.666 140.91 452.321C139.982 450.976 139.48 449.338 139.404 447.406H144.589C144.665 448.42 144.977 449.262 145.526 449.935C146.076 450.607 146.79 451.109 147.671 451.44C148.561 451.772 149.556 451.938 150.654 451.938C151.8 451.938 152.804 451.767 153.665 451.426C154.537 451.076 155.219 450.593 155.711 449.977C156.203 449.352 156.454 448.623 156.464 447.79C156.454 447.032 156.232 446.407 155.796 445.915C155.361 445.413 154.75 444.996 153.964 444.665C153.187 444.324 152.278 444.021 151.237 443.756L147.927 442.903C145.531 442.288 143.637 441.355 142.245 440.105C140.862 438.846 140.171 437.174 140.171 435.091C140.171 433.377 140.635 431.876 141.563 430.588C142.501 429.3 143.774 428.301 145.384 427.591C146.994 426.871 148.817 426.511 150.853 426.511C152.917 426.511 154.726 426.871 156.279 427.591C157.842 428.301 159.068 429.291 159.958 430.56C160.848 431.819 161.308 433.268 161.336 434.906H156.265Z" fill="white"/>
<circle cx="418" cy="168" r="97.5" stroke="#25B4D4" stroke-width="13"/>
<circle cx="421" cy="167" r="25" fill="white"/>
<circle cx="497" cy="117" r="25" fill="#FB8282"/>
<path d="M352.711 433H347.086L357.327 403.909H363.833L374.088 433H368.463L360.694 409.875H360.466L352.711 433ZM352.895 421.594H368.236V425.827H352.895V421.594ZM373.126 408.327V403.909H396.336V408.327H387.345V433H382.118V408.327H373.126ZM425.555 418.455C425.555 421.589 424.968 424.274 423.794 426.509C422.629 428.734 421.038 430.438 419.021 431.622C417.013 432.806 414.736 433.398 412.189 433.398C409.641 433.398 407.359 432.806 405.342 431.622C403.334 430.429 401.743 428.72 400.569 426.494C399.404 424.259 398.822 421.58 398.822 418.455C398.822 415.32 399.404 412.64 400.569 410.415C401.743 408.18 403.334 406.471 405.342 405.287C407.359 404.103 409.641 403.511 412.189 403.511C414.736 403.511 417.013 404.103 419.021 405.287C421.038 406.471 422.629 408.18 423.794 410.415C424.968 412.64 425.555 415.32 425.555 418.455ZM420.257 418.455C420.257 416.248 419.911 414.387 419.22 412.872C418.538 411.348 417.591 410.197 416.379 409.42C415.167 408.634 413.77 408.241 412.189 408.241C410.607 408.241 409.21 408.634 407.998 409.42C406.786 410.197 405.834 411.348 405.143 412.872C404.461 414.387 404.12 416.248 404.12 418.455C404.12 420.661 404.461 422.527 405.143 424.051C405.834 425.566 406.786 426.717 407.998 427.503C409.21 428.279 410.607 428.668 412.189 428.668C413.77 428.668 415.167 428.279 416.379 427.503C417.591 426.717 418.538 425.566 419.22 424.051C419.911 422.527 420.257 420.661 420.257 418.455ZM430.537 403.909H436.986L445.623 424.989H445.963L454.6 403.909H461.049V433H455.992V413.014H455.722L447.682 432.915H443.904L435.864 412.972H435.594V433H430.537V403.909ZM482.597 411.906C482.464 410.666 481.906 409.7 480.921 409.009C479.945 408.317 478.676 407.972 477.114 407.972C476.016 407.972 475.073 408.137 474.287 408.469C473.501 408.8 472.9 409.25 472.483 409.818C472.067 410.386 471.854 411.035 471.844 411.764C471.844 412.37 471.981 412.896 472.256 413.341C472.54 413.786 472.924 414.165 473.407 414.477C473.89 414.78 474.425 415.036 475.012 415.244C475.599 415.453 476.191 415.628 476.787 415.77L479.515 416.452C480.613 416.707 481.669 417.053 482.682 417.489C483.705 417.924 484.619 418.473 485.424 419.136C486.238 419.799 486.882 420.599 487.355 421.537C487.829 422.474 488.066 423.573 488.066 424.832C488.066 426.537 487.63 428.038 486.759 429.335C485.888 430.623 484.628 431.632 482.98 432.361C481.342 433.08 479.358 433.44 477.029 433.44C474.766 433.44 472.801 433.09 471.134 432.389C469.477 431.688 468.179 430.666 467.242 429.321C466.314 427.976 465.812 426.338 465.736 424.406H470.921C470.997 425.42 471.309 426.262 471.858 426.935C472.408 427.607 473.123 428.109 474.003 428.44C474.893 428.772 475.888 428.938 476.986 428.938C478.132 428.938 479.136 428.767 479.998 428.426C480.869 428.076 481.551 427.593 482.043 426.977C482.535 426.352 482.786 425.623 482.796 424.79C482.786 424.032 482.564 423.407 482.128 422.915C481.693 422.413 481.082 421.996 480.296 421.665C479.519 421.324 478.61 421.021 477.569 420.756L474.259 419.903C471.863 419.288 469.969 418.355 468.577 417.105C467.194 415.846 466.503 414.174 466.503 412.091C466.503 410.377 466.967 408.876 467.895 407.588C468.833 406.3 470.106 405.301 471.716 404.591C473.326 403.871 475.149 403.511 477.185 403.511C479.249 403.511 481.058 403.871 482.611 404.591C484.174 405.301 485.4 406.291 486.29 407.56C487.18 408.819 487.64 410.268 487.668 411.906H482.597Z" fill="white"/>
<circle cx="794" cy="100" r="49" stroke="#25B4D4" stroke-width="10"/>
<circle cx="858" cy="209" r="49" stroke="#25B4D4" stroke-width="10"/>
<circle cx="733" cy="209" r="49" stroke="#25B4D4" stroke-width="10"/>
<circle cx="794" cy="100" r="17" fill="white"/>
<circle cx="858" cy="209" r="17" fill="white"/>
<circle cx="733" cy="209" r="17" fill="white"/>
<circle cx="762" cy="155" r="25" fill="#FB8282"/>
<circle cx="829" cy="155" r="25" fill="#FB8282"/>
<circle cx="794" cy="209" r="25" fill="#FB8282"/>
<path d="M675.283 403.909H681.732L690.369 424.989H690.71L699.346 403.909H705.795V433H700.738V413.014H700.468L692.428 432.915H688.65L680.61 412.972H680.34V433H675.283V403.909ZM737.528 418.455C737.528 421.589 736.941 424.274 735.766 426.509C734.602 428.734 733.011 430.438 730.994 431.622C728.986 432.806 726.709 433.398 724.161 433.398C721.614 433.398 719.332 432.806 717.315 431.622C715.307 430.429 713.716 428.72 712.542 426.494C711.377 424.259 710.795 421.58 710.795 418.455C710.795 415.32 711.377 412.64 712.542 410.415C713.716 408.18 715.307 406.471 717.315 405.287C719.332 404.103 721.614 403.511 724.161 403.511C726.709 403.511 728.986 404.103 730.994 405.287C733.011 406.471 734.602 408.18 735.766 410.415C736.941 412.64 737.528 415.32 737.528 418.455ZM732.229 418.455C732.229 416.248 731.884 414.387 731.192 412.872C730.511 411.348 729.564 410.197 728.352 409.42C727.139 408.634 725.743 408.241 724.161 408.241C722.58 408.241 721.183 408.634 719.971 409.42C718.759 410.197 717.807 411.348 717.116 412.872C716.434 414.387 716.093 416.248 716.093 418.455C716.093 420.661 716.434 422.527 717.116 424.051C717.807 425.566 718.759 426.717 719.971 427.503C721.183 428.279 722.58 428.668 724.161 428.668C725.743 428.668 727.139 428.279 728.352 427.503C729.564 426.717 730.511 425.566 731.192 424.051C731.884 422.527 732.229 420.661 732.229 418.455ZM742.51 433V403.909H747.78V428.582H760.592V433H742.51ZM765.166 433V403.909H784.087V408.327H770.436V416.224H783.107V420.642H770.436V428.582H784.2V433H765.166ZM814.364 413.724H809.051C808.9 412.853 808.62 412.081 808.213 411.409C807.806 410.727 807.299 410.15 806.693 409.676C806.087 409.203 805.396 408.848 804.619 408.611C803.852 408.365 803.024 408.241 802.134 408.241C800.552 408.241 799.151 408.639 797.929 409.435C796.707 410.221 795.751 411.376 795.06 412.901C794.368 414.416 794.023 416.267 794.023 418.455C794.023 420.68 794.368 422.555 795.06 424.08C795.76 425.595 796.717 426.741 797.929 427.517C799.151 428.284 800.547 428.668 802.119 428.668C802.991 428.668 803.805 428.554 804.562 428.327C805.33 428.09 806.016 427.744 806.622 427.29C807.238 426.835 807.754 426.277 808.17 425.614C808.597 424.951 808.89 424.193 809.051 423.341L814.364 423.369C814.165 424.752 813.734 426.049 813.071 427.261C812.418 428.473 811.561 429.544 810.5 430.472C809.439 431.39 808.199 432.11 806.778 432.631C805.358 433.142 803.781 433.398 802.048 433.398C799.491 433.398 797.209 432.806 795.202 431.622C793.194 430.438 791.613 428.729 790.457 426.494C789.302 424.259 788.724 421.58 788.724 418.455C788.724 415.32 789.307 412.64 790.472 410.415C791.636 408.18 793.223 406.471 795.23 405.287C797.238 404.103 799.51 403.511 802.048 403.511C803.668 403.511 805.173 403.739 806.565 404.193C807.957 404.648 809.198 405.315 810.287 406.196C811.376 407.067 812.271 408.137 812.972 409.406C813.682 410.666 814.146 412.105 814.364 413.724ZM837.528 403.909H842.798V422.915C842.798 424.998 842.305 426.83 841.32 428.412C840.345 429.993 838.972 431.229 837.201 432.119C835.43 433 833.361 433.44 830.994 433.44C828.617 433.44 826.543 433 824.772 432.119C823.001 431.229 821.628 429.993 820.653 428.412C819.677 426.83 819.19 424.998 819.19 422.915V403.909H824.46V422.474C824.46 423.687 824.725 424.766 825.255 425.713C825.795 426.66 826.552 427.403 827.528 427.943C828.503 428.473 829.658 428.739 830.994 428.739C832.329 428.739 833.484 428.473 834.46 427.943C835.444 427.403 836.202 426.66 836.732 425.713C837.263 424.766 837.528 423.687 837.528 422.474V403.909ZM848.526 433V403.909H853.795V428.582H866.608V433H848.526ZM871.182 433V403.909H890.102V408.327H876.452V416.224H889.122V420.642H876.452V428.582H890.216V433H871.182ZM911.288 411.906C911.156 410.666 910.597 409.7 909.612 409.009C908.637 408.317 907.368 407.972 905.805 407.972C904.707 407.972 903.765 408.137 902.979 408.469C902.193 408.8 901.591 409.25 901.175 409.818C900.758 410.386 900.545 411.035 900.536 411.764C900.536 412.37 900.673 412.896 900.947 413.341C901.232 413.786 901.615 414.165 902.098 414.477C902.581 414.78 903.116 415.036 903.703 415.244C904.29 415.453 904.882 415.628 905.479 415.77L908.206 416.452C909.304 416.707 910.36 417.053 911.374 417.489C912.396 417.924 913.31 418.473 914.115 419.136C914.929 419.799 915.573 420.599 916.047 421.537C916.52 422.474 916.757 423.573 916.757 424.832C916.757 426.537 916.321 428.038 915.45 429.335C914.579 430.623 913.32 431.632 911.672 432.361C910.034 433.08 908.05 433.44 905.72 433.44C903.457 433.44 901.492 433.09 899.825 432.389C898.168 431.688 896.871 430.666 895.933 429.321C895.005 427.976 894.503 426.338 894.428 424.406H899.612C899.688 425.42 900 426.262 900.55 426.935C901.099 427.607 901.814 428.109 902.695 428.44C903.585 428.772 904.579 428.938 905.678 428.938C906.823 428.938 907.827 428.767 908.689 428.426C909.56 428.076 910.242 427.593 910.734 426.977C911.227 426.352 911.478 425.623 911.487 424.79C911.478 424.032 911.255 423.407 910.82 422.915C910.384 422.413 909.773 421.996 908.987 421.665C908.211 421.324 907.302 421.021 906.26 420.756L902.95 419.903C900.554 419.288 898.661 418.355 897.268 417.105C895.886 415.846 895.195 414.174 895.195 412.091C895.195 410.377 895.659 408.876 896.587 407.588C897.524 406.3 898.798 405.301 900.408 404.591C902.018 403.871 903.84 403.511 905.876 403.511C907.941 403.511 909.75 403.871 911.303 404.591C912.865 405.301 914.091 406.291 914.982 407.56C915.872 408.819 916.331 410.268 916.359 411.906H911.288Z" fill="white"/>
<circle cx="1123" cy="54" r="49" stroke="#25B4D4" stroke-width="10"/>
<circle cx="1123" cy="163" r="49" stroke="#25B4D4" stroke-width="10"/>
<circle cx="1123" cy="272" r="49" stroke="#25B4D4" stroke-width="10"/>
<circle cx="1230" cy="54" r="49" stroke="#25B4D4" stroke-width="10"/>
<circle cx="1230" cy="163" r="49" stroke="#25B4D4" stroke-width="10"/>
<circle cx="1230" cy="272" r="49" stroke="#25B4D4" stroke-width="10"/>
<circle cx="1337" cy="54" r="49" stroke="#25B4D4" stroke-width="10"/>
<circle cx="1337" cy="163" r="49" stroke="#25B4D4" stroke-width="10"/>
<circle cx="1337" cy="272" r="49" stroke="#25B4D4" stroke-width="10"/>
<circle cx="1123" cy="54" r="17" fill="white"/>
<circle cx="1123" cy="163" r="17" fill="white"/>
<circle cx="1123" cy="272" r="17" fill="white"/>
<circle cx="1230" cy="54" r="17" fill="white"/>
<circle cx="1230" cy="163" r="17" fill="white"/>
<circle cx="1230" cy="272" r="17" fill="white"/>
<circle cx="1337" cy="54" r="17" fill="white"/>
<circle cx="1337" cy="163" r="17" fill="white"/>
<circle cx="1337" cy="272" r="17" fill="white"/>
<circle cx="1125" cy="109" r="25" fill="#FB8282"/>
<circle cx="1177" cy="54" r="25" fill="#FB8282"/>
<circle cx="1177" cy="164" r="25" fill="#FB8282"/>
<circle cx="1177" cy="274" r="25" fill="#FB8282"/>
<circle cx="1283" cy="54" r="25" fill="#FB8282"/>
<circle cx="1283" cy="164" r="25" fill="#FB8282"/>
<circle cx="1283" cy="274" r="25" fill="#FB8282"/>
<circle cx="1125" cy="217" r="25" fill="#FB8282"/>
<circle cx="1230" cy="109" r="25" fill="#FB8282"/>
<circle cx="1230" cy="217" r="25" fill="#FB8282"/>
<circle cx="1337" cy="109" r="25" fill="#FB8282"/>
<circle cx="1337" cy="217" r="25" fill="#FB8282"/>
<path d="M1137.33 418.455C1137.33 421.589 1136.75 424.274 1135.57 426.509C1134.41 428.734 1132.82 430.438 1130.8 431.622C1128.79 432.806 1126.51 433.398 1123.97 433.398C1121.42 433.398 1119.14 432.806 1117.12 431.622C1115.11 430.429 1113.52 428.72 1112.35 426.494C1111.18 424.259 1110.6 421.58 1110.6 418.455C1110.6 415.32 1111.18 412.64 1112.35 410.415C1113.52 408.18 1115.11 406.471 1117.12 405.287C1119.14 404.103 1121.42 403.511 1123.97 403.511C1126.51 403.511 1128.79 404.103 1130.8 405.287C1132.82 406.471 1134.41 408.18 1135.57 410.415C1136.75 412.64 1137.33 415.32 1137.33 418.455ZM1132.03 418.455C1132.03 416.248 1131.69 414.387 1131 412.872C1130.32 411.348 1129.37 410.197 1128.16 409.42C1126.94 408.634 1125.55 408.241 1123.97 408.241C1122.38 408.241 1120.99 408.634 1119.78 409.42C1118.56 410.197 1117.61 411.348 1116.92 412.872C1116.24 414.387 1115.9 416.248 1115.9 418.455C1115.9 420.661 1116.24 422.527 1116.92 424.051C1117.61 425.566 1118.56 426.717 1119.78 427.503C1120.99 428.279 1122.38 428.668 1123.97 428.668C1125.55 428.668 1126.94 428.279 1128.16 427.503C1129.37 426.717 1130.32 425.566 1131 424.051C1131.69 422.527 1132.03 420.661 1132.03 418.455ZM1142.31 433V403.909H1153.22C1155.46 403.909 1157.33 404.297 1158.85 405.074C1160.37 405.85 1161.52 406.939 1162.3 408.341C1163.09 409.733 1163.48 411.357 1163.48 413.213C1163.48 415.079 1163.08 416.698 1162.29 418.071C1161.5 419.435 1160.34 420.491 1158.81 421.239C1157.27 421.977 1155.39 422.347 1153.15 422.347H1145.38V417.972H1152.44C1153.75 417.972 1154.82 417.792 1155.65 417.432C1156.49 417.062 1157.1 416.527 1157.5 415.827C1157.91 415.116 1158.11 414.245 1158.11 413.213C1158.11 412.181 1157.91 411.3 1157.5 410.571C1157.09 409.832 1156.47 409.274 1155.64 408.895C1154.81 408.507 1153.73 408.312 1152.41 408.312H1147.58V433H1142.31ZM1157.34 419.818L1164.54 433H1158.66L1151.59 419.818H1157.34ZM1187.82 413.199C1187.58 412.432 1187.26 411.745 1186.84 411.139C1186.43 410.524 1185.94 409.998 1185.36 409.562C1184.79 409.127 1184.14 408.8 1183.4 408.582C1182.66 408.355 1181.86 408.241 1180.99 408.241C1179.42 408.241 1178.03 408.634 1176.81 409.42C1175.59 410.206 1174.63 411.362 1173.93 412.886C1173.24 414.402 1172.89 416.248 1172.89 418.426C1172.89 420.623 1173.24 422.484 1173.93 424.009C1174.62 425.533 1175.58 426.693 1176.81 427.489C1178.04 428.275 1179.47 428.668 1181.1 428.668C1182.58 428.668 1183.86 428.384 1184.94 427.815C1186.02 427.247 1186.86 426.442 1187.45 425.401C1188.04 424.349 1188.33 423.118 1188.33 421.707L1189.52 421.892H1181.63V417.773H1193.43V421.267C1193.43 423.758 1192.9 425.912 1191.84 427.73C1190.78 429.548 1189.32 430.95 1187.46 431.935C1185.61 432.91 1183.48 433.398 1181.07 433.398C1178.39 433.398 1176.04 432.796 1174.01 431.594C1172 430.382 1170.42 428.663 1169.28 426.438C1168.16 424.203 1167.59 421.551 1167.59 418.483C1167.59 416.134 1167.92 414.037 1168.59 412.19C1169.26 410.344 1170.2 408.777 1171.4 407.489C1172.6 406.191 1174.01 405.206 1175.63 404.534C1177.25 403.852 1179.01 403.511 1180.92 403.511C1182.53 403.511 1184.03 403.748 1185.42 404.222C1186.81 404.686 1188.05 405.348 1189.13 406.21C1190.21 407.072 1191.11 408.095 1191.81 409.278C1192.51 410.462 1192.97 411.769 1193.19 413.199H1187.82ZM1201.36 433H1195.74L1205.98 403.909H1212.49L1222.74 433H1217.12L1209.35 409.875H1209.12L1201.36 433ZM1201.55 421.594H1216.89V425.827H1201.55V421.594ZM1250.48 403.909V433H1245.79L1232.08 413.185H1231.84V433H1226.57V403.909H1231.29L1244.98 423.739H1245.24V403.909H1250.48ZM1261.49 403.909V433H1256.22V403.909H1261.49ZM1283.01 411.906C1282.87 410.666 1282.32 409.7 1281.33 409.009C1280.36 408.317 1279.09 407.972 1277.52 407.972C1276.43 407.972 1275.48 408.137 1274.7 408.469C1273.91 408.8 1273.31 409.25 1272.89 409.818C1272.48 410.386 1272.26 411.035 1272.25 411.764C1272.25 412.37 1272.39 412.896 1272.67 413.341C1272.95 413.786 1273.33 414.165 1273.82 414.477C1274.3 414.78 1274.83 415.036 1275.42 415.244C1276.01 415.453 1276.6 415.628 1277.2 415.77L1279.92 416.452C1281.02 416.707 1282.08 417.053 1283.09 417.489C1284.12 417.924 1285.03 418.473 1285.83 419.136C1286.65 419.799 1287.29 420.599 1287.77 421.537C1288.24 422.474 1288.48 423.573 1288.48 424.832C1288.48 426.537 1288.04 428.038 1287.17 429.335C1286.3 430.623 1285.04 431.632 1283.39 432.361C1281.75 433.08 1279.77 433.44 1277.44 433.44C1275.18 433.44 1273.21 433.09 1271.54 432.389C1269.89 431.688 1268.59 430.666 1267.65 429.321C1266.72 427.976 1266.22 426.338 1266.15 424.406H1271.33C1271.41 425.42 1271.72 426.262 1272.27 426.935C1272.82 427.607 1273.53 428.109 1274.41 428.44C1275.3 428.772 1276.3 428.938 1277.4 428.938C1278.54 428.938 1279.55 428.767 1280.41 428.426C1281.28 428.076 1281.96 427.593 1282.45 426.977C1282.95 426.352 1283.2 425.623 1283.21 424.79C1283.2 424.032 1282.97 423.407 1282.54 422.915C1282.1 422.413 1281.49 421.996 1280.71 421.665C1279.93 421.324 1279.02 421.021 1277.98 420.756L1274.67 419.903C1272.27 419.288 1270.38 418.355 1268.99 417.105C1267.6 415.846 1266.91 414.174 1266.91 412.091C1266.91 410.377 1267.38 408.876 1268.31 407.588C1269.24 406.3 1270.52 405.301 1272.13 404.591C1273.74 403.871 1275.56 403.511 1277.6 403.511C1279.66 403.511 1281.47 403.871 1283.02 404.591C1284.58 405.301 1285.81 406.291 1286.7 407.56C1287.59 408.819 1288.05 410.268 1288.08 411.906H1283.01ZM1293.17 403.909H1299.62L1308.26 424.989H1308.6L1317.24 403.909H1323.69V433H1318.63V413.014H1318.36L1310.32 432.915H1306.54L1298.5 412.972H1298.23V433H1293.17V403.909ZM1345.23 411.906C1345.1 410.666 1344.54 409.7 1343.56 409.009C1342.58 408.317 1341.31 407.972 1339.75 407.972C1338.65 407.972 1337.71 408.137 1336.92 408.469C1336.14 408.8 1335.54 409.25 1335.12 409.818C1334.7 410.386 1334.49 411.035 1334.48 411.764C1334.48 412.37 1334.62 412.896 1334.89 413.341C1335.18 413.786 1335.56 414.165 1336.04 414.477C1336.53 414.78 1337.06 415.036 1337.65 415.244C1338.24 415.453 1338.83 415.628 1339.42 415.77L1342.15 416.452C1343.25 416.707 1344.31 417.053 1345.32 417.489C1346.34 417.924 1347.26 418.473 1348.06 419.136C1348.87 419.799 1349.52 420.599 1349.99 421.537C1350.47 422.474 1350.7 423.573 1350.7 424.832C1350.7 426.537 1350.27 428.038 1349.4 429.335C1348.52 430.623 1347.26 431.632 1345.62 432.361C1343.98 433.08 1342 433.44 1339.67 433.44C1337.4 433.44 1335.44 433.09 1333.77 432.389C1332.11 431.688 1330.82 430.666 1329.88 429.321C1328.95 427.976 1328.45 426.338 1328.37 424.406H1333.56C1333.63 425.42 1333.95 426.262 1334.5 426.935C1335.04 427.607 1335.76 428.109 1336.64 428.44C1337.53 428.772 1338.52 428.938 1339.62 428.938C1340.77 428.938 1341.77 428.767 1342.63 428.426C1343.51 428.076 1344.19 427.593 1344.68 426.977C1345.17 426.352 1345.42 425.623 1345.43 424.79C1345.42 424.032 1345.2 423.407 1344.76 422.915C1344.33 422.413 1343.72 421.996 1342.93 421.665C1342.16 421.324 1341.25 421.021 1340.21 420.756L1336.9 419.903C1334.5 419.288 1332.61 418.355 1331.21 417.105C1329.83 415.846 1329.14 414.174 1329.14 412.091C1329.14 410.377 1329.6 408.876 1330.53 407.588C1331.47 406.3 1332.74 405.301 1334.35 404.591C1335.96 403.871 1337.79 403.511 1339.82 403.511C1341.89 403.511 1343.69 403.871 1345.25 404.591C1346.81 405.301 1348.04 406.291 1348.93 407.56C1349.82 408.819 1350.28 410.268 1350.3 411.906H1345.23Z" fill="white"/>
<rect x="1581.17" y="9.35547" width="215.251" height="288.938" stroke="#FB8282" stroke-width="10" stroke-dasharray="30 20"/>
<rect x="1546" y="52.0605" width="215.251" height="288.938" fill="#2F3841" stroke="white" stroke-width="10" stroke-dasharray="30 20"/>
<path d="M1553.81 408.327V403.909H1577.02V408.327H1568.03V433H1562.81V408.327H1553.81ZM1581.5 433V403.909H1600.42V408.327H1586.77V416.224H1599.44V420.642H1586.77V428.582H1600.53V433H1581.5ZM1605.8 403.909H1612.24L1620.88 424.989H1621.22L1629.86 403.909H1636.31V433H1631.25V413.014H1630.98L1622.94 432.915H1619.16L1611.12 412.972H1610.85V433H1605.8V403.909ZM1642.05 433V403.909H1652.95C1655.19 403.909 1657.06 404.326 1658.58 405.159C1660.1 405.992 1661.25 407.138 1662.03 408.597C1662.82 410.045 1663.21 411.693 1663.21 413.54C1663.21 415.405 1662.82 417.062 1662.03 418.511C1661.24 419.96 1660.08 421.101 1658.55 421.935C1657.02 422.759 1655.13 423.17 1652.88 423.17H1645.65V418.838H1652.17C1653.48 418.838 1654.55 418.611 1655.38 418.156C1656.22 417.702 1656.83 417.077 1657.23 416.281C1657.64 415.486 1657.84 414.572 1657.84 413.54C1657.84 412.508 1657.64 411.598 1657.23 410.812C1656.83 410.027 1656.21 409.416 1655.37 408.98C1654.54 408.535 1653.46 408.312 1652.14 408.312H1647.31V433H1642.05ZM1667.79 433V403.909H1673.06V428.582H1685.87V433H1667.79ZM1695.27 433H1689.65L1699.89 403.909H1706.4L1716.65 433H1711.03L1703.26 409.875H1703.03L1695.27 433ZM1695.46 421.594H1710.8V425.827H1695.46V421.594ZM1715.69 408.327V403.909H1738.9V408.327H1729.91V433H1724.68V408.327H1715.69ZM1743.37 433V403.909H1762.29V408.327H1748.64V416.224H1761.31V420.642H1748.64V428.582H1762.41V433H1743.37ZM1783.48 411.906C1783.35 410.666 1782.79 409.7 1781.8 409.009C1780.83 408.317 1779.56 407.972 1778 407.972C1776.9 407.972 1775.96 408.137 1775.17 408.469C1774.38 408.8 1773.78 409.25 1773.37 409.818C1772.95 410.386 1772.74 411.035 1772.73 411.764C1772.73 412.37 1772.86 412.896 1773.14 413.341C1773.42 413.786 1773.81 414.165 1774.29 414.477C1774.77 414.78 1775.31 415.036 1775.89 415.244C1776.48 415.453 1777.07 415.628 1777.67 415.77L1780.4 416.452C1781.5 416.707 1782.55 417.053 1783.56 417.489C1784.59 417.924 1785.5 418.473 1786.31 419.136C1787.12 419.799 1787.76 420.599 1788.24 421.537C1788.71 422.474 1788.95 423.573 1788.95 424.832C1788.95 426.537 1788.51 428.038 1787.64 429.335C1786.77 430.623 1785.51 431.632 1783.86 432.361C1782.23 433.08 1780.24 433.44 1777.91 433.44C1775.65 433.44 1773.68 433.09 1772.02 432.389C1770.36 431.688 1769.06 430.666 1768.12 429.321C1767.2 427.976 1766.69 426.338 1766.62 424.406H1771.8C1771.88 425.42 1772.19 426.262 1772.74 426.935C1773.29 427.607 1774.01 428.109 1774.89 428.44C1775.78 428.772 1776.77 428.938 1777.87 428.938C1779.01 428.938 1780.02 428.767 1780.88 428.426C1781.75 428.076 1782.43 427.593 1782.93 426.977C1783.42 426.352 1783.67 425.623 1783.68 424.79C1783.67 424.032 1783.45 423.407 1783.01 422.915C1782.58 422.413 1781.96 421.996 1781.18 421.665C1780.4 421.324 1779.49 421.021 1778.45 420.756L1775.14 419.903C1772.75 419.288 1770.85 418.355 1769.46 417.105C1768.08 415.846 1767.39 414.174 1767.39 412.091C1767.39 410.377 1767.85 408.876 1768.78 407.588C1769.72 406.3 1770.99 405.301 1772.6 404.591C1774.21 403.871 1776.03 403.511 1778.07 403.511C1780.13 403.511 1781.94 403.871 1783.49 404.591C1785.06 405.301 1786.28 406.291 1787.17 407.56C1788.06 408.819 1788.52 410.268 1788.55 411.906H1783.48Z" fill="white"/>
<rect x="1994.1" y="9.35547" width="215.251" height="288.938" stroke="#FB8282" stroke-width="10"/>
<path d="M2170.83 117.075V340.999H1956.42V52.0605H2118.22L2170.83 117.075Z" fill="#2F3841" stroke="white" stroke-width="10"/>
<path d="M2121.8 112.818V60.8583L2165.15 112.818H2121.8Z" fill="#2F3741" stroke="white" stroke-width="10"/>
<path d="M2020.52 433V403.909H2031.42C2033.66 403.909 2035.53 404.326 2037.05 405.159C2038.57 405.992 2039.73 407.138 2040.5 408.597C2041.29 410.045 2041.68 411.693 2041.68 413.54C2041.68 415.405 2041.29 417.062 2040.5 418.511C2039.72 419.96 2038.56 421.101 2037.02 421.935C2035.49 422.759 2033.6 423.17 2031.35 423.17H2024.12V418.838H2030.64C2031.95 418.838 2033.02 418.611 2033.85 418.156C2034.69 417.702 2035.3 417.077 2035.7 416.281C2036.11 415.486 2036.31 414.572 2036.31 413.54C2036.31 412.508 2036.11 411.598 2035.7 410.812C2035.3 410.027 2034.68 409.416 2033.84 408.98C2033.01 408.535 2031.93 408.312 2030.62 408.312H2025.79V433H2020.52ZM2046.75 433H2041.13L2051.37 403.909H2057.87L2068.13 433H2062.5L2054.73 409.875H2054.51L2046.75 433ZM2046.94 421.594H2062.28V425.827H2046.94V421.594ZM2090.08 413.199C2089.85 412.432 2089.52 411.745 2089.1 411.139C2088.7 410.524 2088.2 409.998 2087.63 409.562C2087.06 409.127 2086.4 408.8 2085.66 408.582C2084.93 408.355 2084.12 408.241 2083.25 408.241C2081.69 408.241 2080.3 408.634 2079.07 409.42C2077.85 410.206 2076.89 411.362 2076.19 412.886C2075.5 414.402 2075.15 416.248 2075.15 418.426C2075.15 420.623 2075.5 422.484 2076.19 424.009C2076.88 425.533 2077.84 426.693 2079.07 427.489C2080.31 428.275 2081.74 428.668 2083.36 428.668C2084.84 428.668 2086.12 428.384 2087.2 427.815C2088.29 427.247 2089.13 426.442 2089.71 425.401C2090.3 424.349 2090.59 423.118 2090.59 421.707L2091.79 421.892H2083.89V417.773H2095.69V421.267C2095.69 423.758 2095.16 425.912 2094.1 427.73C2093.04 429.548 2091.58 430.95 2089.73 431.935C2087.87 432.91 2085.74 433.398 2083.34 433.398C2080.66 433.398 2078.3 432.796 2076.28 431.594C2074.26 430.382 2072.68 428.663 2071.55 426.438C2070.42 424.203 2069.86 421.551 2069.86 418.483C2069.86 416.134 2070.19 414.037 2070.85 412.19C2071.52 410.344 2072.46 408.777 2073.66 407.489C2074.86 406.191 2076.28 405.206 2077.9 404.534C2079.51 403.852 2081.28 403.511 2083.18 403.511C2084.79 403.511 2086.29 403.748 2087.68 404.222C2089.07 404.686 2090.31 405.348 2091.39 406.21C2092.48 407.072 2093.37 408.095 2094.07 409.278C2094.77 410.462 2095.23 411.769 2095.45 413.199H2090.08ZM2100.79 433V403.909H2119.71V408.327H2106.06V416.224H2118.73V420.642H2106.06V428.582H2119.82V433H2100.79ZM2140.9 411.906C2140.76 410.666 2140.2 409.7 2139.22 409.009C2138.24 408.317 2136.98 407.972 2135.41 407.972C2134.31 407.972 2133.37 408.137 2132.59 408.469C2131.8 408.8 2131.2 409.25 2130.78 409.818C2130.37 410.386 2130.15 411.035 2130.14 411.764C2130.14 412.37 2130.28 412.896 2130.55 413.341C2130.84 413.786 2131.22 414.165 2131.71 414.477C2132.19 414.78 2132.72 415.036 2133.31 415.244C2133.9 415.453 2134.49 415.628 2135.09 415.77L2137.81 416.452C2138.91 416.707 2139.97 417.053 2140.98 417.489C2142 417.924 2142.92 418.473 2143.72 419.136C2144.54 419.799 2145.18 420.599 2145.65 421.537C2146.13 422.474 2146.36 423.573 2146.36 424.832C2146.36 426.537 2145.93 428.038 2145.06 429.335C2144.19 430.623 2142.93 431.632 2141.28 432.361C2139.64 433.08 2137.66 433.44 2135.33 433.44C2133.06 433.44 2131.1 433.09 2129.43 432.389C2127.78 431.688 2126.48 430.666 2125.54 429.321C2124.61 427.976 2124.11 426.338 2124.03 424.406H2129.22C2129.3 425.42 2129.61 426.262 2130.16 426.935C2130.71 427.607 2131.42 428.109 2132.3 428.44C2133.19 428.772 2134.19 428.938 2135.28 428.938C2136.43 428.938 2137.43 428.767 2138.3 428.426C2139.17 428.076 2139.85 427.593 2140.34 426.977C2140.83 426.352 2141.09 425.623 2141.09 424.79C2141.09 424.032 2140.86 423.407 2140.43 422.915C2139.99 422.413 2139.38 421.996 2138.59 421.665C2137.82 421.324 2136.91 421.021 2135.87 420.756L2132.56 419.903C2130.16 419.288 2128.27 418.355 2126.88 417.105C2125.49 415.846 2124.8 414.174 2124.8 412.091C2124.8 410.377 2125.27 408.876 2126.19 407.588C2127.13 406.3 2128.41 405.301 2130.02 404.591C2131.62 403.871 2133.45 403.511 2135.48 403.511C2137.55 403.511 2139.36 403.871 2140.91 404.591C2142.47 405.301 2143.7 406.291 2144.59 407.56C2145.48 408.819 2145.94 410.268 2145.97 411.906H2140.9Z" fill="white"/>
<path d="M261 188.5L226.5 216.646L226.5 160.354L261 188.5Z" fill="#F4F684"/>
<path d="M621 188.5L586.5 216.646L586.5 160.354L621 188.5Z" fill="#F4F684"/>
<path d="M1016 188.5L981.5 216.646L981.5 160.354L1016 188.5Z" fill="#F4F684"/>
<path d="M1488 188.5L1453.5 216.646L1453.5 160.354L1488 188.5Z" fill="#F4F684"/>
<path d="M1898 188.5L1863.5 216.646L1863.5 160.354L1898 188.5Z" fill="#F4F684"/>
</svg>
